<?xml version="1.0" encoding="UTF-8"?>
<svg version="1.1" xmlns="http://www.w3.org/2000/svg" width="869" height="287">
<path d="M0 0 C0.78052734 0.00322266 1.56105469 0.00644531 2.36523438 0.00976562 C3.53022461 -0.0144043 3.53022461 -0.0144043 4.71875 -0.0390625 C10.47759199 -0.04402274 10.47759199 -0.04402274 12.55810547 1.64892578 C14.25514412 3.72227746 15.51831613 5.97987458 16.81201172 8.31982422 C22.10502292 17.81944738 27.87307661 27.210927 34.29492188 35.98632812 C35.78035741 38.1114249 37.16041515 40.26739887 38.52978516 42.46826172 C38.97911407 43.18968353 39.42844299 43.91110535 39.89138794 44.65438843 C40.40437943 45.47998764 40.40437943 45.47998764 40.92773438 46.32226562 C40.93804184 45.76072281 40.9483493 45.19917999 40.95896912 44.62062073 C41.06681122 38.79733097 41.18142645 32.97420298 41.30004883 27.15112305 C41.34346945 24.97537609 41.38513908 22.79959348 41.42504883 20.6237793 C41.48257939 17.50363395 41.5463226 14.3836693 41.61132812 11.26367188 C41.62804062 10.28451309 41.64475311 9.30535431 41.66197205 8.29652405 C41.68191727 7.39566574 41.70186249 6.49480743 41.72241211 5.56665039 C41.73795639 4.76945084 41.75350067 3.97225128 41.76951599 3.15089417 C41.92773438 1.32226562 41.92773438 1.32226562 42.92773438 0.32226562 C45.77108485 0.22239588 48.58470601 0.18348681 51.42773438 0.19726562 C52.62462891 0.19146484 52.62462891 0.19146484 53.84570312 0.18554688 C59.8011267 0.19565795 59.8011267 0.19565795 60.92773438 1.32226562 C61.02803483 3.74556667 61.06391863 6.14038071 61.05712891 8.56420898 C61.05975739 9.7007769 61.05975739 9.7007769 61.06243896 10.86030579 C61.06685822 13.37759661 61.06391895 15.89481777 61.06054688 18.41210938 C61.06121996 20.15466831 61.06219003 21.89722715 61.06344604 23.63978577 C61.06492317 27.29754528 61.06276824 30.95528042 61.05810547 34.61303711 C61.05241239 39.30871238 61.05568442 44.00433046 61.06167793 48.70000362 C61.06528674 52.30042453 61.06414341 55.90083182 61.06155014 59.50125313 C61.06088154 61.23286508 61.06170698 62.96447826 61.06402969 64.69608879 C61.06656097 67.11440188 61.06270869 69.53262162 61.05712891 71.95092773 C61.06016525 73.03182175 61.06016525 73.03182175 61.06326294 74.134552 C61.04199795 79.09373848 61.04199795 79.09373848 59.92773438 81.32226562 C44.93166365 82.52462319 44.93166365 82.52462319 40.77929688 80.03320312 C39.2029223 77.89188506 38.09937715 75.71101791 36.92773438 73.32226562 C35.85368389 71.64594384 34.77819626 69.97037644 33.67919922 68.31030273 C31.71897011 65.3417833 29.83037547 62.32787468 27.92773438 59.32226562 C26.71961606 57.42629527 25.51130116 55.53045015 24.30273438 53.63476562 C22.52301574 50.83628282 20.74664304 48.03577914 18.97460938 45.23242188 C18.34039062 44.23082031 17.70617187 43.22921875 17.05273438 42.19726562 C16.4778125 41.2871875 15.90289062 40.37710938 15.31054688 39.43945312 C14.09686241 37.42294371 14.09686241 37.42294371 12.92773438 36.32226562 C11.93488373 46.80040543 11.87480197 57.137217 12.0546875 67.65234375 C12.06564453 68.84408203 12.07660156 70.03582031 12.08789062 71.26367188 C12.104729 72.33302979 12.12156738 73.4023877 12.13891602 74.50415039 C11.92789174 77.32016564 11.38502424 78.93561655 9.92773438 81.32226562 C7.11517156 81.34910875 4.30286196 81.3690275 1.49023438 81.38476562 C0.68779297 81.39314453 -0.11464844 81.40152344 -0.94140625 81.41015625 C-2.98521783 81.41877993 -5.02910464 81.37454712 -7.07226562 81.32226562 C-8.76356838 79.63096287 -8.20419738 77.52772032 -8.21890259 75.27008057 C-8.2184494 74.54746033 -8.21799622 73.82484009 -8.2175293 73.08032227 C-8.22088791 72.32261032 -8.22424652 71.56489838 -8.22770691 70.78422546 C-8.23724485 68.26694115 -8.23916144 65.74972315 -8.24023438 63.23242188 C-8.24344498 61.48986279 -8.2468089 59.74730399 -8.25032043 58.00474548 C-8.25631883 54.34698868 -8.25815961 50.68925552 -8.25756836 47.03149414 C-8.2574667 42.33577633 -8.27111999 37.6402096 -8.28834057 32.94452763 C-8.29943858 29.34410399 -8.30148825 25.74371712 -8.30095863 22.14327812 C-8.30214204 20.41166094 -8.30658385 18.6800429 -8.314291 16.94844246 C-8.32404673 14.53005404 -8.32123053 12.11199684 -8.31518555 9.69360352 C-8.32080505 8.97300751 -8.32642456 8.2524115 -8.33221436 7.50997925 C-8.28948673 0.81118013 -6.55146918 0.0621796 0 0 Z " fill="#F1ECE0" transform="translate(242.072265625,107.677734375)"/>
<path d="M0 0 C2.68785226 -0.31781064 5.14047902 -0.44401469 7.83203125 -0.43359375 C9.01341927 -0.44145653 9.01341927 -0.44145653 10.21867371 -0.44947815 C11.89406152 -0.45591396 13.56949442 -0.45454124 15.24487305 -0.44604492 C17.76502526 -0.43765799 20.28281375 -0.46606756 22.80273438 -0.49804688 C33.39946353 -0.54424172 44.76915893 -0.30736579 53.625 6.375 C58.09134316 11.31148455 59.98825319 16.33955591 60 23 C59.57848261 28.01988886 59.04225135 32.44733033 55.375 36.125 C54.59125 36.74375 53.8075 37.3625 53 38 C53.77518704 41.15245936 53.77518704 41.15245936 56.375 43.125 C60.50009587 47.64296215 61.67570377 52.45195823 62.4375 58.4375 C61.65765211 64.78768992 59.71706416 70.07353777 55.4375 74.875 C45.37011197 81.84143028 34.44352486 81.53986503 22.70800781 81.35668945 C19.84682718 81.31206056 16.98648795 81.29515852 14.125 81.28320312 C12.30988356 81.2697995 10.49477751 81.25488224 8.6796875 81.23828125 C7.3939534 81.22720085 7.3939534 81.22720085 6.08224487 81.21589661 C0.11841796 81.11841796 0.11841796 81.11841796 -1 80 C-1.13551398 77.61355203 -1.20719886 75.25430276 -1.23706055 72.86572266 C-1.25017273 72.11937057 -1.26328491 71.37301849 -1.27679443 70.60404968 C-1.31874868 68.12410714 -1.35316258 65.64413203 -1.38671875 63.1640625 C-1.41236111 61.44631749 -1.43814515 59.72857458 -1.46406555 58.01083374 C-1.51711689 54.40439802 -1.56603001 50.79793185 -1.61254883 47.19140625 C-1.67289262 42.56515058 -1.74711174 37.93923238 -1.82492352 33.31324196 C-1.8824749 29.76348125 -1.93079649 26.21363881 -1.976511 22.66370773 C-1.9999501 20.95799308 -2.02671371 19.25232081 -2.05682945 17.54671097 C-2.09791522 15.16217478 -2.12614126 12.77781816 -2.15112305 10.39306641 C-2.16609329 9.68541641 -2.18106354 8.97776642 -2.19648743 8.24867249 C-2.22027632 4.58101009 -2.09702309 3.14553463 0 0 Z M18 16 C18 21.28 18 26.56 18 32 C21.4131538 32.85328845 23.97017983 33.16345478 27.4375 33.1875 C28.36433594 33.20167969 29.29117188 33.21585938 30.24609375 33.23046875 C33.24181627 32.97976289 35.33214643 32.37739953 38 31 C40.14291019 27.78563471 40.30025791 25.82573391 40.4609375 22.03515625 C39.77445772 19.00417348 38.44734809 17.86600128 36 16 C33.10428707 15.30454015 33.10428707 15.30454015 30 15.25 C28.453125 15.16492188 28.453125 15.16492188 26.875 15.078125 C22.29789525 14.76624635 22.29789525 14.76624635 18 16 Z M18 47 C18 53.27 18 59.54 18 66 C22.33125 66.061875 22.33125 66.061875 26.75 66.125 C27.65331055 66.14320801 28.55662109 66.16141602 29.48730469 66.18017578 C30.20821289 66.1851709 30.92912109 66.19016602 31.671875 66.1953125 C32.77160645 66.21102295 32.77160645 66.21102295 33.89355469 66.22705078 C36.36885304 65.96024185 37.90029251 65.3306993 40 64 C42.01471597 60.97792605 42.33719034 60.08273301 42.4375 56.625 C42.47746094 55.87476563 42.51742187 55.12453125 42.55859375 54.3515625 C41.66586338 50.59335493 40.11132824 49.24882079 37 47 C33.69733348 46.40560095 30.52911222 46.52677719 27.1875 46.6875 C22.6396875 46.8421875 22.6396875 46.8421875 18 47 Z " fill="#F1ECE0" transform="translate(496,108)"/>
<path d="M0 0 C1.1127832 -0.01836914 1.1127832 -0.01836914 2.24804688 -0.03710938 C4.18763629 -0.04238478 6.1267371 0.06561098 8.0625 0.1875 C11.11330946 3.23830946 10.42038708 6.81560779 10.4765625 10.9140625 C10.49592865 11.77687836 10.5152948 12.63969421 10.5352478 13.52865601 C10.59512204 16.28983616 10.64145998 19.05105784 10.6875 21.8125 C10.72567259 23.68231005 10.76472389 25.55210238 10.8046875 27.421875 C10.90082992 32.01027309 10.98483166 36.59875351 11.0625 41.1875 C11.88234375 40.29546875 12.7021875 39.4034375 13.546875 38.484375 C14.63537192 37.30204214 15.72391608 36.11975277 16.8125 34.9375 C17.35132813 34.35097656 17.89015625 33.76445312 18.4453125 33.16015625 C19.50083187 32.01453157 20.5604214 30.87264165 21.62432861 29.73480225 C22.82991824 28.43773046 24.00953251 27.11658115 25.18261719 25.79003906 C27.43958177 23.86605003 28.46440772 23.71326879 31.390625 23.796875 C32.18984375 23.80976562 32.9890625 23.82265625 33.8125 23.8359375 C35.05 23.88621094 35.05 23.88621094 36.3125 23.9375 C37.15296875 23.95554687 37.9934375 23.97359375 38.859375 23.9921875 C40.92757395 24.03919202 42.99518441 24.11093276 45.0625 24.1875 C45.63012695 26.08007812 45.63012695 26.08007812 46.0625 28.1875 C44.98046875 29.90625 44.98046875 29.90625 43.25 31.6875 C42.61320313 32.37457031 41.97640625 33.06164062 41.3203125 33.76953125 C40.57523438 34.56746094 39.83015625 35.36539063 39.0625 36.1875 C37.22123694 38.22599249 35.41798679 40.29402051 33.625 42.375 C32.76003906 43.35855469 31.89507813 44.34210938 31.00390625 45.35546875 C28.81831627 48.54370364 28.59511275 49.44155882 29.0625 53.1875 C30.46741004 55.99037547 30.46741004 55.99037547 32.45703125 58.78515625 C33.16537109 59.83380859 33.87371094 60.88246094 34.60351562 61.96289062 C35.35310547 63.04763672 36.10269531 64.13238281 36.875 65.25 C37.61298828 66.33861328 38.35097656 67.42722656 39.11132812 68.54882812 C42.82821585 74.06865283 42.82821585 74.06865283 46.8190918 79.38842773 C48.0625 81.1875 48.0625 81.1875 47.75 83.4375 C47.523125 84.015 47.29625 84.5925 47.0625 85.1875 C42.77942468 85.75507902 38.53043628 86.21927873 34.2109375 86.37109375 C33.50114746 86.39743896 32.79135742 86.42378418 32.06005859 86.45092773 C29.5969021 86.12609935 28.42318782 85.30354398 26.5625 83.6875 C25.66954272 82.22221104 24.84915141 80.71249967 24.0625 79.1875 C23.29216801 77.9129069 22.51263748 76.64385094 21.7265625 75.37890625 C19.44225576 71.68318656 17.23988712 67.94712176 15.0625 64.1875 C13.0825 65.1775 13.0825 65.1775 11.0625 66.1875 C11.01351562 67.39148438 10.96453125 68.59546875 10.9140625 69.8359375 C10.83903657 71.41148198 10.76348867 72.98700166 10.6875 74.5625 C10.6565625 75.3565625 10.625625 76.150625 10.59375 76.96875 C10.2890625 82.9609375 10.2890625 82.9609375 8.0625 85.1875 C4.91015625 85.671875 4.91015625 85.671875 1.125 85.9375 C-0.12152344 86.03546875 -1.36804688 86.1334375 -2.65234375 86.234375 C-5.9375 86.1875 -5.9375 86.1875 -8.9375 84.1875 C-9.22917483 81.50103721 -9.32622519 79.04524494 -9.29394531 76.35717773 C-9.29598969 75.54894562 -9.29803406 74.7407135 -9.30014038 73.9079895 C-9.30315558 71.22879627 -9.28465088 68.5502141 -9.265625 65.87109375 C-9.26256882 64.01546888 -9.26069163 62.15984172 -9.25994873 60.30421448 C-9.25534117 56.41276287 -9.24089698 52.52151769 -9.21875 48.63012695 C-9.1904476 43.63057978 -9.17953712 38.63119526 -9.1750679 33.63157558 C-9.17092028 29.79956927 -9.16110865 25.96759617 -9.14919281 22.13560677 C-9.14347762 20.29152761 -9.13872308 18.44744523 -9.13492584 16.60336113 C-9.1280857 14.03165893 -9.11446464 11.46008828 -9.09863281 8.88842773 C-9.09695602 7.73436684 -9.09695602 7.73436684 -9.09524536 6.55699158 C-9.03354072 -0.97336895 -6.80505714 0.00588164 0 0 Z " fill="#F1ECE0" transform="translate(697.9375,103.8125)"/>
<path d="M0 0 C2.00603872 1.06375451 3.958292 2.18982425 5.90771484 3.35400391 C6.96418213 3.96574463 6.96418213 3.96574463 8.04199219 4.58984375 C11.79873941 6.7738788 15.51371493 9.02334724 19.22021484 11.29150391 C23.00084433 13.59275664 26.87433232 15.58687881 30.84521484 17.54150391 C35.91937544 20.04520157 40.91324756 22.64275319 45.84521484 25.41650391 C46.99505859 26.06103516 48.14490234 26.70556641 49.32958984 27.36962891 C52.09521484 29.16650391 52.09521484 29.16650391 54.09521484 32.16650391 C54.43479047 36.24141142 54.40853971 37.69651661 52.09521484 41.16650391 C50.02747345 41.54123402 50.02747345 41.54123402 47.4263916 41.54072571 C46.44207657 41.54774002 45.45776154 41.55475433 44.44361877 41.5619812 C43.35991501 41.55433746 42.27621124 41.54669373 41.15966797 41.53881836 C39.45229713 41.54429436 39.45229713 41.54429436 37.71043396 41.54988098 C33.93229443 41.55801452 30.15458003 41.54435272 26.37646484 41.52978516 C23.76094564 41.52926689 21.14542604 41.52978329 18.52990723 41.53129578 C13.04202151 41.53217927 7.55425919 41.5210869 2.06640625 41.50268555 C-4.28316676 41.48151699 -10.63255894 41.47800768 -16.98216009 41.48424751 C-23.08400506 41.48993743 -29.18577595 41.48419602 -35.28761292 41.47307396 C-37.88725019 41.46921373 -40.48689293 41.46807713 -43.08653259 41.46965981 C-46.71420802 41.47002901 -50.34160458 41.45745083 -53.96923828 41.44116211 C-55.05294205 41.44363953 -56.13664581 41.44611694 -57.25318909 41.44866943 C-58.23750412 41.44158463 -59.22181915 41.43449982 -60.23596191 41.42720032 C-61.09431892 41.42514745 -61.95267593 41.42309458 -62.83704376 41.4209795 C-64.90478516 41.16650391 -64.90478516 41.16650391 -66.90478516 39.16650391 C-67.59489168 32.03540316 -67.59489168 32.03540316 -65.29150391 29.13525391 C-62.49840415 26.83128946 -59.55163419 25.17379395 -56.34228516 23.54150391 C-55.69243652 23.20231934 -55.04258789 22.86313477 -54.37304688 22.51367188 C-52.22048546 21.39101505 -50.06293395 20.27837763 -47.90478516 19.16650391 C-44.77646217 17.54782919 -41.65162057 15.92265574 -38.52978516 14.29150391 C-37.34243774 13.67166626 -37.34243774 13.67166626 -36.13110352 13.03930664 C-29.71497608 9.65969045 -23.4552266 6.04856768 -17.24707031 2.30175781 C-11.13133403 -1.37545377 -6.92271723 -3.02924335 0 0 Z M-12.13525391 14.08056641 C-13.34084961 14.72832031 -13.34084961 14.72832031 -14.57080078 15.38916016 C-15.40289062 15.85193359 -16.23498047 16.31470703 -17.09228516 16.79150391 C-17.90503906 17.23107422 -18.71779297 17.67064453 -19.55517578 18.12353516 C-22.01309566 19.45710823 -24.46024069 20.80858542 -26.90478516 22.16650391 C-27.7692627 22.64571289 -28.63374023 23.12492187 -29.52441406 23.61865234 C-31.65223431 24.79943217 -33.77902934 25.98201269 -35.90478516 27.16650391 C-32.51808976 29.42430084 -31.38787664 29.41137173 -27.42358398 29.39355469 C-25.74218071 29.39332809 -25.74218071 29.39332809 -24.02680969 29.39309692 C-22.21263802 29.37761307 -22.21263802 29.37761307 -20.36181641 29.36181641 C-19.12308273 29.35898651 -17.88434906 29.35615662 -16.608078 29.35324097 C-13.31840429 29.34393577 -10.02892652 29.32597182 -6.73931885 29.30383301 C-3.38108721 29.2833566 -0.02282688 29.27423542 3.33544922 29.26416016 C9.92211457 29.24208662 16.50864868 29.20859913 23.09521484 29.16650391 C20.16752223 26.14331672 17.56075769 24.12821933 13.81396484 22.18603516 C12.30382812 21.4000293 12.30382812 21.4000293 10.76318359 20.59814453 C9.71775391 20.06382813 8.67232422 19.52951172 7.59521484 18.97900391 C6.54978516 18.43308594 5.50435547 17.88716797 4.42724609 17.32470703 C-3.6514431 12.46372203 -3.6514431 12.46372203 -12.13525391 14.08056641 Z " fill="#F1ECE0" transform="translate(139.90478515625,86.83349609375)"/>
<path d="M0 0 C5.59782506 6.08743075 5.6588735 13.62314231 5.7890625 21.41796875 C5.81080032 22.33792633 5.83253815 23.25788391 5.85493469 24.20571899 C5.89862675 26.13688931 5.93787596 28.06816476 5.97290039 29.99951172 C6.02755982 32.96876892 6.09767155 35.93737386 6.16992188 38.90625 C6.21054024 40.78513691 6.25028517 42.66404295 6.2890625 44.54296875 C6.30982346 45.43454681 6.33058441 46.32612488 6.35197449 47.24472046 C6.38718777 49.35686775 6.36911727 51.46979329 6.33984375 53.58203125 C4.31292246 55.60895254 0.30235767 54.76710342 -2.47265625 54.76953125 C-3.19775391 54.78177734 -3.92285156 54.79402344 -4.66992188 54.80664062 C-10.23275167 54.82190914 -10.23275167 54.82190914 -12.796875 53.3828125 C-13.41175781 53.11855469 -14.02664063 52.85429687 -14.66015625 52.58203125 C-16.68091866 53.5393814 -18.67904255 54.54511829 -20.66015625 55.58203125 C-28.81732495 56.8288023 -35.83066469 56.21775886 -42.66015625 51.41015625 C-47.30084658 47.16827524 -48.83628225 42.79279147 -49.16015625 36.58203125 C-48.8979437 31.55372008 -47.95225419 27.48408642 -44.66015625 23.58203125 C-37.43063407 18.06982081 -31.34046472 16.50075812 -22.41015625 16.01953125 C-21.66507812 15.97634766 -20.92 15.93316406 -20.15234375 15.88867188 C-18.32180725 15.783064 -16.49100449 15.68208924 -14.66015625 15.58203125 C-14.92672197 12.64759723 -14.92672197 12.64759723 -15.66015625 9.58203125 C-19.13014354 7.26870639 -20.58524873 7.24245562 -24.66015625 7.58203125 C-28.011588 9.45799652 -28.011588 9.45799652 -29.66015625 13.58203125 C-35.27015625 13.58203125 -40.88015625 13.58203125 -46.66015625 13.58203125 C-47.7236527 8.26454902 -47.6569848 7.02471958 -45.2109375 2.578125 C-40.69359082 -3.23639428 -33.41374868 -6.15900343 -26.29296875 -7.23046875 C-16.51089496 -7.92711495 -7.65013463 -6.53411499 0 0 Z M-27.66015625 29.58203125 C-29.97298212 33.05127006 -30.08494211 34.504087 -29.66015625 38.58203125 C-28.7241831 40.60154187 -28.7241831 40.60154187 -26.66015625 41.58203125 C-21.68246561 42.13510799 -18.65631732 41.63791913 -14.66015625 38.58203125 C-13.51662709 36.29497294 -13.55681186 34.98938363 -13.59765625 32.45703125 C-13.61828125 31.17828125 -13.63890625 29.89953125 -13.66015625 28.58203125 C-19.01260797 27.24391832 -22.52100389 27.86898046 -27.66015625 29.58203125 Z " fill="#F1ECE0" transform="translate(480.66015625,134.41796875)"/>
<path d="M0 0 C0.928125 0.61875 1.85625 1.2375 2.8125 1.875 C9.73900797 8.60360774 9.13088784 18.30119068 9.31640625 27.3125 C9.33718735 28.16682617 9.35796844 29.02115234 9.37937927 29.90136719 C9.44418599 32.60083842 9.50343565 35.30039765 9.5625 38 C9.60575092 39.84245661 9.64936718 41.68490469 9.69335938 43.52734375 C9.8004756 48.01814079 9.90005857 52.50901477 10 57 C4.39 57 -1.22 57 -7 57 C-7.33 56.01 -7.66 55.02 -8 54 C-8.48726562 54.28875 -8.97453125 54.5775 -9.4765625 54.875 C-16.47486631 58.53956636 -23.20871901 59.05660061 -31 58 C-36.74134035 55.89185159 -40.49704332 51.88290931 -44 47 C-45.61021592 42.16935225 -45.95802887 36.8521888 -44.31640625 31.96484375 C-41.12042697 25.93094095 -36.05911635 21.78889921 -29.6328125 19.55859375 C-23.53361611 18.2645506 -17.21460561 18.21871792 -11 18 C-11.26656572 15.06556598 -11.26656572 15.06556598 -12 12 C-15.49124017 9.67250655 -16.89222251 9.49700684 -21 10 C-23.30275556 11.8670991 -24.67823871 13.35647741 -26 16 C-31.61 16 -37.22 16 -43 16 C-44.01548522 10.9225739 -43.9516607 9.87718062 -41.29296875 5.703125 C-31.95219398 -6.60073542 -12.45751158 -8.31487115 0 0 Z M-24 32 C-26.31282587 35.46923881 -26.42478586 36.92205575 -26 41 C-25.06402685 43.01951062 -25.06402685 43.01951062 -23 44 C-18.02230936 44.55307674 -14.99616107 44.05588788 -11 41 C-9.85647084 38.71294169 -9.89665561 37.40735238 -9.9375 34.875 C-9.958125 33.59625 -9.97875 32.3175 -10 31 C-15.31996222 30.08276513 -18.96450137 29.60214351 -24 32 Z " fill="#F2ECE0" transform="translate(608,132)"/>
<path d="M0 0 C5.77315462 6.92778554 7.10025133 14.51643795 6.92578125 23.3125 C6.92249313 24.24803711 6.91920502 25.18357422 6.91581726 26.14746094 C6.90547826 28.10375035 6.88566994 30.06001122 6.85668945 32.01611328 C6.81220341 35.02002708 6.79518083 38.02313963 6.78320312 41.02734375 C6.76979394 42.93490747 6.75487511 44.84246132 6.73828125 46.75 C6.73089432 47.64887939 6.72350739 48.54775879 6.71589661 49.47387695 C6.70306137 50.30234131 6.69022614 51.13080566 6.67700195 51.984375 C6.66715775 52.71366211 6.65731354 53.44294922 6.64717102 54.19433594 C6.5 56 6.5 56 5.5 58 C2.87438891 58.08074203 0.25124324 58.1403623 -2.375 58.1875 C-3.12136719 58.21263672 -3.86773438 58.23777344 -4.63671875 58.26367188 C-6.8046875 58.29296875 -6.8046875 58.29296875 -10.5 58 C-13.13529948 54.04705078 -12.7605754 50.64667771 -12.73828125 46.0625 C-12.75369532 44.26301324 -12.76999854 42.46353392 -12.78710938 40.6640625 C-12.80359637 37.82633078 -12.81247302 34.9891431 -12.80541992 32.15136719 C-12.80280768 29.41278294 -12.83085774 26.67586254 -12.86328125 23.9375 C-12.85307449 23.08744385 -12.84286774 22.2373877 -12.83235168 21.36157227 C-12.86954146 19.13115132 -12.94783634 17.16133157 -13.5 15 C-16.40959955 12.43977018 -17.69266852 11.96704769 -21.5625 12.125 C-24.76879183 13.08006565 -26.23286734 13.54169582 -28.5 16 C-29.1135277 18.98162761 -29.05701142 21.93747872 -29.0390625 24.97265625 C-29.05085541 25.85150986 -29.06264832 26.73036346 -29.07479858 27.635849 C-29.11013154 30.44491251 -29.11923691 33.25323218 -29.125 36.0625 C-29.14131754 38.87511544 -29.16329751 41.68739612 -29.19662476 44.49986267 C-29.21632446 46.25039534 -29.22558215 48.00108192 -29.22354126 49.75172424 C-29.27654567 55.77654567 -29.27654567 55.77654567 -31.5 58 C-34.24485593 58.14507695 -36.88480543 58.18652423 -39.625 58.125 C-40.37910156 58.11597656 -41.13320313 58.10695312 -41.91015625 58.09765625 C-43.77357254 58.0740687 -45.63682593 58.03819719 -47.5 58 C-48.81538313 55.36923375 -48.62710325 53.41053669 -48.62939453 50.46459961 C-48.63254669 49.30677475 -48.63569885 48.14894989 -48.63894653 46.95603943 C-48.6369223 45.70081985 -48.63489807 44.44560028 -48.6328125 43.15234375 C-48.63376923 41.87017471 -48.63472595 40.58800568 -48.63571167 39.26698303 C-48.63718671 36.55256955 -48.63503994 33.83818896 -48.63037109 31.1237793 C-48.62466822 27.63758959 -48.62795754 24.15147677 -48.63394356 20.66528988 C-48.63841655 17.34846826 -48.63528929 14.03166756 -48.6328125 10.71484375 C-48.63483673 9.45759995 -48.63686096 8.20035614 -48.63894653 6.90501404 C-48.63579437 5.75034134 -48.63264221 4.59566864 -48.62939453 3.40600586 C-48.62859894 2.38389511 -48.62780334 1.36178436 -48.62698364 0.30870056 C-48.5 -2 -48.5 -2 -47.5 -3 C-45.2109392 -3.12586907 -42.91748882 -3.17577971 -40.625 -3.1875 C-39.36945312 -3.20167969 -38.11390625 -3.21585937 -36.8203125 -3.23046875 C-33.5 -3 -33.5 -3 -30.5 -1 C-30.5 -0.34 -30.5 0.32 -30.5 1 C-29.91992188 0.72285156 -29.33984375 0.44570312 -28.7421875 0.16015625 C-27.96101562 -0.20207031 -27.17984375 -0.56429687 -26.375 -0.9375 C-25.60929688 -1.29714844 -24.84359375 -1.65679687 -24.0546875 -2.02734375 C-16.62687252 -4.85536505 -6.68686407 -4.81044813 0 0 Z " fill="#F1ECE0" transform="translate(673.5,131)"/>
<path d="M0 0 C5.13080876 4.24025418 7.91432369 9.46799706 9 16 C9.92818374 27.64240343 9.16378119 37.1037374 3 47.3125 C-2.75310873 53.25622378 -10.25961085 56.24527982 -18.40820312 56.66357422 C-26.30948121 56.74885233 -32.36861838 55.57658731 -39 51 C-39.928125 50.443125 -40.85625 49.88625 -41.8125 49.3125 C-49.45804211 41.23006977 -50.38551421 31.62048451 -50.2109375 21.05859375 C-49.92672965 13.47796345 -48.10872363 7.10606144 -42.796875 1.53125 C-29.8216898 -9.52586434 -13.99145973 -9.1825432 0 0 Z M-28 11 C-32.36302926 16.2979641 -32.25202176 23.11179702 -31.875 29.6875 C-31.25355402 34.41877536 -29.37883325 36.70357731 -26 40 C-22.89951072 41.55024464 -20.42105782 41.28992015 -17 41 C-13.03485072 39.01742536 -11.56352163 36.59362797 -10.0625 32.5625 C-8.42781439 26.30239716 -9.07692806 20.13934681 -11 14 C-13.3561895 10.36496912 -13.3561895 10.36496912 -16.96484375 8.1875 C-21.55915576 7.75081292 -24.32337929 7.84861082 -28 11 Z " fill="#F1ECE0" transform="translate(361,134)"/>
<path d="M0 0 C2.60478883 -0.0809313 5.20706653 -0.14045434 7.8125 -0.1875 C8.55048828 -0.21263672 9.28847656 -0.23777344 10.04882812 -0.26367188 C15.55381551 -0.33840021 15.55381551 -0.33840021 17.64331055 1.24633789 C19.20146815 3.26041852 19.80729884 4.90494614 20.5 7.3515625 C20.7475 8.20363281 20.995 9.05570313 21.25 9.93359375 C21.4975 10.82175781 21.745 11.70992187 22 12.625 C22.49862263 14.36758221 22.99861531 16.10977299 23.5 17.8515625 C23.86544922 19.12821777 23.86544922 19.12821777 24.23828125 20.43066406 C25.39167554 24.32115171 26.68228833 28.16251521 28 32 C30.02377356 28.96433966 30.84619078 26.60254522 31.875 23.125 C32.22046875 21.97515625 32.5659375 20.8253125 32.921875 19.640625 C33.27765625 18.43921875 33.6334375 17.2378125 34 16 C34.70373121 13.62363229 35.41186668 11.24856314 36.125 8.875 C36.43695313 7.82054687 36.74890625 6.76609375 37.0703125 5.6796875 C38 3 38 3 40 0 C42.75541841 -0.27613568 45.25091102 -0.37257625 48 -0.3125 C48.73734375 -0.31572266 49.4746875 -0.31894531 50.234375 -0.32226562 C55.73292051 -0.26707949 55.73292051 -0.26707949 58 2 C57.71130975 7.9855112 55.01464708 13.60039004 52.875 19.125 C49.54659613 27.83220564 46.33977292 36.56149847 43.38427734 45.40283203 C39.13668962 57.86331038 39.13668962 57.86331038 36 61 C33.73882741 61.34224734 31.46444952 61.59910926 29.1875 61.8125 C27.32158203 62.00779297 27.32158203 62.00779297 25.41796875 62.20703125 C22 62 22 62 19.7890625 60.63671875 C17.11810266 56.70026048 15.72049828 52.48228667 14.1875 48 C13.84493164 47.02828857 13.50236328 46.05657715 13.14941406 45.05541992 C12.08898966 42.0405405 11.04398368 39.02060593 10 36 C9.35658922 34.16236772 8.71210216 32.32511184 8.06640625 30.48828125 C7.16647087 27.92802581 6.26890723 25.36714864 5.3815918 22.80249023 C3.56186151 17.54448627 1.63617181 12.34337212 -0.46875 7.19140625 C-1.11917777 4.50839171 -0.70799109 2.64099307 0 0 Z " fill="#F2EDE1" transform="translate(372,128)"/>
<path d="M0 0 C1.04812866 -0.0049649 2.09625732 -0.00992981 3.17614746 -0.01504517 C6.61971709 -0.02957114 10.0632408 -0.03644962 13.50683594 -0.04199219 C15.90720622 -0.04774764 18.3075765 -0.05350532 20.70794678 -0.05926514 C25.72782606 -0.06974512 30.74768945 -0.0756087 35.76757812 -0.07910156 C42.20608665 -0.084607 48.64438591 -0.10869126 55.08282852 -0.13707352 C60.03440984 -0.15566548 64.98594012 -0.16090347 69.93755341 -0.16243744 C72.31226507 -0.1654678 74.68697575 -0.17350916 77.06165314 -0.18662262 C80.37460033 -0.20362503 83.68702722 -0.20181795 87 -0.1953125 C87.9829303 -0.20452728 88.9658606 -0.21374207 89.97857666 -0.22323608 C90.88124268 -0.21766693 91.78390869 -0.21209778 92.71392822 -0.20635986 C93.49627964 -0.20782642 94.27863106 -0.20929298 95.08469009 -0.21080399 C97.8284817 0.26241985 99.21811403 1.27753727 101.24121094 3.16113281 C101.70214844 5.53613281 101.70214844 5.53613281 101.61621094 8.16113281 C101.60332031 9.02738281 101.59042969 9.89363281 101.57714844 10.78613281 C101.24121094 13.16113281 101.24121094 13.16113281 99.24121094 16.16113281 C97.17346954 16.53586292 97.17346954 16.53586292 94.5723877 16.53535461 C93.58807266 16.54236893 92.60375763 16.54938324 91.58961487 16.55661011 C90.5059111 16.54896637 89.42220734 16.54132263 88.30566406 16.53344727 C86.59829323 16.53892326 86.59829323 16.53892326 84.85643005 16.54450989 C81.07829053 16.55264343 77.30057612 16.53898163 73.52246094 16.52441406 C70.90694173 16.52389579 68.29142214 16.5244122 65.67590332 16.52592468 C60.1880176 16.52680818 54.70025529 16.5157158 49.21240234 16.49731445 C42.86282933 16.4761459 36.51343715 16.47263658 30.163836 16.47887641 C24.06199103 16.48456634 17.96022014 16.47882493 11.85838318 16.46770287 C9.2587459 16.46384264 6.65910316 16.46270603 4.0594635 16.46428871 C0.43178807 16.46465791 -3.19560848 16.45207973 -6.82324219 16.43579102 C-7.90694595 16.43826843 -8.99064972 16.44074585 -10.10719299 16.44329834 C-11.09150803 16.43621353 -12.07582306 16.42912872 -13.08996582 16.42182922 C-13.94832283 16.41977635 -14.80667984 16.41772348 -15.69104767 16.41560841 C-17.75878906 16.16113281 -17.75878906 16.16113281 -19.75878906 14.16113281 C-19.98925781 11.37597656 -19.98925781 11.37597656 -19.94628906 8.09863281 C-19.93984375 7.01453125 -19.93339844 5.93042969 -19.92675781 4.81347656 C-19.75878906 2.16113281 -19.75878906 2.16113281 -18.75878906 1.16113281 C-12.49149788 0.13984746 -6.33973142 0.00726988 0 0 Z " fill="#F1EDE1" transform="translate(92.7587890625,190.8388671875)"/>
<path d="M0 0 C1.54204102 -0.0309375 1.54204102 -0.0309375 3.11523438 -0.0625 C4.09685547 -0.06765625 5.07847656 -0.0728125 6.08984375 -0.078125 C7.44710571 -0.09214355 7.44710571 -0.09214355 8.83178711 -0.10644531 C9.56792236 0.01118164 10.30405762 0.12880859 11.0625 0.25 C13.0625 3.25 13.0625 3.25 13 5.8125 C12.690625 6.616875 12.38125 7.42125 12.0625 8.25 C10.4125 8.91 8.7625 9.57 7.0625 10.25 C7.0625 22.79 7.0625 35.33 7.0625 48.25 C8.7125 48.91 10.3625 49.57 12.0625 50.25 C13.0625 52.6875 13.0625 52.6875 13.0625 55.25 C11.53716152 57.25715032 10.63352221 58.13981287 8.13305664 58.62231445 C7.42012451 58.6193335 6.70719238 58.61635254 5.97265625 58.61328125 C4.79606445 58.61231445 4.79606445 58.61231445 3.59570312 58.61132812 C2.78037109 58.59521484 1.96503906 58.57910156 1.125 58.5625 C0.31353516 58.56572266 -0.49792969 58.56894531 -1.33398438 58.57226562 C-5.49218922 58.53474286 -8.25422006 58.33171876 -11.9375 56.25 C-12.0625 53.875 -12.0625 53.875 -11.9375 51.25 C-11.2775 50.59 -10.6175 49.93 -9.9375 49.25 C-8.9475 49.25 -7.9575 49.25 -6.9375 49.25 C-6.9375 36.05 -6.9375 22.85 -6.9375 9.25 C-8.2575 8.92 -9.5775 8.59 -10.9375 8.25 C-11.9375 7.25 -11.9375 7.25 -12.0625 4.25 C-11.796465 -2.13484008 -5.1093729 0.02553091 0 0 Z " fill="#F2EEE2" transform="translate(132.9375,130.75)"/>
<path d="M0 0 C0.77601563 0.02707031 1.55203125 0.05414063 2.3515625 0.08203125 C4.6015625 0.203125 4.6015625 0.203125 8.375 0.75 C10.375 3.75 10.375 3.75 10.25 6.3125 C9.375 8.75 9.375 8.75 5.375 10.75 C5.045 23.62 4.715 36.49 4.375 49.75 C5.695 50.08 7.015 50.41 8.375 50.75 C9.6875 52.625 9.6875 52.625 10.375 54.75 C10.045 55.74 9.715 56.73 9.375 57.75 C1.27473192 59.50140931 -6.803853 59.53085227 -14.625 56.75 C-14.75 54.375 -14.75 54.375 -14.625 51.75 C-13.965 51.09 -13.305 50.43 -12.625 49.75 C-11.635 49.75 -10.645 49.75 -9.625 49.75 C-9.66909314 44.25014079 -9.73886205 38.7514362 -9.83251953 33.25219727 C-9.86075737 31.38119696 -9.8819579 29.51007674 -9.89599609 27.63891602 C-9.91738717 24.95005779 -9.96401545 22.26264562 -10.015625 19.57421875 C-10.01685364 18.73662521 -10.01808228 17.89903168 -10.01934814 17.03605652 C-10.04137775 14.40171012 -10.04137775 14.40171012 -10.625 10.75 C-12.51384322 8.8237895 -12.51384322 8.8237895 -14.625 7.75 C-15 5.1875 -15 5.1875 -14.625 2.75 C-10.56180624 -1.31319376 -5.35377846 -0.29643404 0 0 Z " fill="#F2EEE3" transform="translate(171.625,130.25)"/>
<path d="M0 0 C0.82371094 0.02707031 1.64742187 0.05414063 2.49609375 0.08203125 C3.67751953 0.14197266 3.67751953 0.14197266 4.8828125 0.203125 C5.60098145 0.23567383 6.31915039 0.26822266 7.05908203 0.30175781 C8.875 0.75 8.875 0.75 10.875 3.75 C10.8125 6.3125 10.8125 6.3125 9.875 8.75 C8.225 9.41 6.575 10.07 4.875 10.75 C4.875 23.62 4.875 36.49 4.875 49.75 C6.525 50.08 8.175 50.41 9.875 50.75 C11 55.5 11 55.5 9.875 57.75 C7.30182297 58.0948897 4.83549228 58.31076018 2.25 58.4375 C1.55003906 58.48455078 0.85007812 58.53160156 0.12890625 58.58007812 C-4.41616536 58.83726678 -8.62753411 58.61133987 -13.125 57.75 C-14.125 56.75 -14.125 56.75 -14.3125 54.3125 C-14.125 51.75 -14.125 51.75 -12.125 49.75 C-11.135 49.75 -10.145 49.75 -9.125 49.75 C-9.125 36.55 -9.125 23.35 -9.125 9.75 C-10.445 9.42 -11.765 9.09 -13.125 8.75 C-13.455 8.42 -13.785 8.09 -14.125 7.75 C-13.83769945 5.41055264 -13.50563221 3.0760857 -13.125 0.75 C-8.67546469 -0.53561623 -4.58266576 -0.23890675 0 0 Z " fill="#F2EDE3" transform="translate(99.125,130.25)"/>
</svg>
