<?xml version="1.0" encoding="UTF-8"?>
<svg version="1.1" xmlns="http://www.w3.org/2000/svg" width="869" height="287">
<path d="M0 0 C15.76932515 -1.50184049 15.76932515 -1.50184049 20.3671875 1.59375 C22.22241218 4.28890227 23.581466 7.04958667 25 10 C26.69588268 12.88766155 28.48048952 15.7195352 30.25 18.5625 C31.19278322 20.11374731 32.13417015 21.665844 33.07421875 23.21875 C36.01043518 28.03878264 39.0144599 32.81248541 42.0625 37.5625 C42.5275293 38.29476807 42.99255859 39.02703613 43.47167969 39.78149414 C45.6667969 43.47404386 45.6667969 43.47404386 49 46 C48.99777939 45.43845718 48.99555878 44.87691437 48.99327087 44.2983551 C48.97121694 38.47519565 48.95609295 32.65204799 48.94506836 26.82885742 C48.94002692 24.65307127 48.93319393 22.47728853 48.92456055 20.30151367 C48.91248662 17.18146933 48.90676995 14.06146962 48.90234375 10.94140625 C48.89718246 9.96224747 48.89202118 8.98308868 48.88670349 7.97425842 C48.88662796 7.07340012 48.88655243 6.17254181 48.88647461 5.24438477 C48.884254 4.44718521 48.88203339 3.64998566 48.87974548 2.82862854 C49 1 49 1 50 0 C52.84335048 -0.09986975 55.65697163 -0.13877881 58.5 -0.125 C59.69689453 -0.13080078 59.69689453 -0.13080078 60.91796875 -0.13671875 C66.87339233 -0.12660767 66.87339233 -0.12660767 68 1 C68.1003188 3.45905221 68.1361818 5.89003428 68.12939453 8.34960938 C68.13202301 9.50321709 68.13202301 9.50321709 68.13470459 10.68013 C68.1391234 13.23469263 68.13618502 15.78918661 68.1328125 18.34375 C68.13348553 20.11112481 68.13445555 21.87849953 68.13571167 23.64587402 C68.13718868 27.35490803 68.13503398 31.063918 68.13037109 34.77294922 C68.1246738 39.53822493 68.12795279 44.30344432 68.13394356 49.06871796 C68.13754908 52.71971057 68.13641062 56.37068973 68.13381577 60.02168274 C68.13314647 61.77924099 68.133975 63.53680045 68.13629532 65.2943573 C68.13882171 67.74640154 68.13498146 70.19835331 68.12939453 72.65039062 C68.13141876 73.38393265 68.13344299 74.11747467 68.13552856 74.87324524 C68.11426264 79.88573736 68.11426264 79.88573736 67 81 C52.52337457 82.52137884 52.52337457 82.52137884 47.85546875 79.70703125 C46.27309968 77.56832493 45.17229083 75.39007353 44 73 C42.92604707 71.32383048 41.85065838 69.64841375 40.75170898 67.98852539 C39.55552441 66.17693566 38.38739027 64.35004061 37.2265625 62.515625 C35.87260132 60.37657446 34.5139183 58.24113827 33.1484375 56.109375 C30.67810062 52.25158864 28.22606143 48.387173 25.859375 44.46484375 C25.49787354 43.86808838 25.13637207 43.27133301 24.76391602 42.65649414 C23.73797081 40.95853039 22.71842632 39.25670407 21.69921875 37.5546875 C20.25098238 34.91838352 20.25098238 34.91838352 18 34 C18.00222061 34.57407089 18.00444122 35.14814178 18.00672913 35.73960876 C18.02878257 41.6925291 18.04390684 47.6454379 18.05493164 53.59838867 C18.05997317 55.82267732 18.06680623 58.04696263 18.07543945 60.27124023 C18.08751298 63.46078309 18.09322996 66.65028229 18.09765625 69.83984375 C18.10281754 70.84087631 18.10797882 71.84190887 18.11329651 72.87327576 C18.11340981 74.25459435 18.11340981 74.25459435 18.11352539 75.66381836 C18.115746 76.47878281 18.11796661 77.29374725 18.12025452 78.13340759 C18 80 18 80 17 81 C14.15664952 81.09986975 11.34302837 81.13877881 8.5 81.125 C7.70207031 81.12886719 6.90414062 81.13273437 6.08203125 81.13671875 C0.12660767 81.12660767 0.12660767 81.12660767 -1 80 C-1.10030046 77.57669895 -1.13618425 75.18188491 -1.12939453 72.75805664 C-1.13114685 72.0003447 -1.13289917 71.24263275 -1.13470459 70.46195984 C-1.13912385 67.94466902 -1.13618458 65.42744785 -1.1328125 62.91015625 C-1.13348559 61.16759731 -1.13445566 59.42503847 -1.13571167 57.68247986 C-1.1371888 54.02472035 -1.13503387 50.3669852 -1.13037109 46.70922852 C-1.12467801 42.01355324 -1.12795005 37.31793517 -1.13394356 32.622262 C-1.13755236 29.02184109 -1.13640904 25.42143381 -1.13381577 21.8210125 C-1.13314716 20.08940054 -1.1339726 18.35778736 -1.13629532 16.62617683 C-1.13882659 14.20786375 -1.13497431 11.789644 -1.12939453 9.37133789 C-1.13141876 8.65074188 -1.13344299 7.93014587 -1.13552856 7.18771362 C-1.11426357 2.22852714 -1.11426357 2.22852714 0 0 Z " fill="#A6BCEA" transform="translate(235,108)"/>
<path d="M0 0 C0.74698654 -0.00570007 1.49397308 -0.01140015 2.26359558 -0.01727295 C3.85499652 -0.02674724 5.4464173 -0.03326651 7.0378418 -0.03710938 C9.43250047 -0.04668322 11.82625111 -0.07762426 14.22070312 -0.109375 C25.10466477 -0.18463855 36.96326565 -0.25804909 45.66796875 7.203125 C46.22484375 7.615625 46.78171875 8.028125 47.35546875 8.453125 C50.67060333 11.39991129 51.58067773 13.55968435 52.18359375 18.00390625 C52.24299817 19.42370473 52.27908828 20.84465211 52.29296875 22.265625 C52.30376465 22.95043945 52.31456055 23.63525391 52.32568359 24.34082031 C52.18530842 29.39676791 50.7080659 32.24866912 47.66796875 36.203125 C46.97367496 37.5222832 46.2926638 38.84961906 45.66796875 40.203125 C46.43109375 40.71875 47.19421875 41.234375 47.98046875 41.765625 C52.27407783 45.65982859 53.44012716 48.86635943 53.98828125 54.48828125 C54.21476444 61.5470072 54.0831825 67.46188996 49.66796875 73.203125 C44.67400945 78.49084661 36.88598016 81.34561784 29.69311523 81.6730957 C27.97504501 81.67910168 26.25679054 81.66371634 24.5390625 81.62890625 C23.62334976 81.62561813 22.70763702 81.62233002 21.76417542 81.61894226 C19.85076665 81.60860692 17.93738696 81.58880504 16.02416992 81.55981445 C13.08169508 81.51526506 10.1400379 81.49829756 7.19726562 81.48632812 C5.33201932 81.47292175 3.46678314 81.45800371 1.6015625 81.44140625 C0.7193956 81.43401932 -0.1627713 81.42663239 -1.07167053 81.41902161 C-7.21363834 81.32151791 -7.21363834 81.32151791 -8.33203125 80.203125 C-8.43235005 77.74407279 -8.46821305 75.31309072 -8.46142578 72.85351562 C-8.4631781 72.08444382 -8.46493042 71.31537201 -8.46673584 70.522995 C-8.47115465 67.96843237 -8.46821627 65.41393839 -8.46484375 62.859375 C-8.46551678 61.09200019 -8.4664868 59.32462547 -8.46774292 57.55725098 C-8.46921993 53.84821697 -8.46706523 50.139207 -8.46240234 46.43017578 C-8.45670505 41.66490007 -8.45998404 36.89968068 -8.46597481 32.13440704 C-8.46958033 28.48341443 -8.46844187 24.83243527 -8.46584702 21.18144226 C-8.46517772 19.42388401 -8.46600625 17.66632455 -8.46832657 15.9087677 C-8.47085296 13.45672346 -8.46701271 11.00477169 -8.46142578 8.55273438 C-8.46345001 7.81919235 -8.46547424 7.08565033 -8.46755981 6.32987976 C-8.43741668 -0.77501809 -6.42113906 0.03775588 0 0 Z M10.66796875 16.203125 C10.64112196 18.84902514 10.62120518 21.49465596 10.60546875 24.140625 C10.59708984 24.89537109 10.58871094 25.65011719 10.58007812 26.42773438 C10.57144434 28.35306813 10.61572542 30.27848081 10.66796875 32.203125 C12.57838433 34.11354058 15.87937471 33.37745802 18.41796875 33.390625 C19.6503125 33.40480469 20.88265625 33.41898438 22.15234375 33.43359375 C26.63706344 33.13959546 29.47381294 32.39728081 32.66796875 29.203125 C33.06242755 27.13480802 33.06242755 27.13480802 33.04296875 24.828125 C33.08550781 23.67183594 33.08550781 23.67183594 33.12890625 22.4921875 C32.45467629 19.14389298 31.50586791 18.12109355 28.66796875 16.203125 C25.56795568 15.72337001 22.54515108 15.82608322 19.41796875 15.953125 C18.15726563 15.98019531 18.15726563 15.98019531 16.87109375 16.0078125 C14.8028948 16.05481702 12.73528434 16.12655776 10.66796875 16.203125 Z M10.66796875 47.203125 C10.66796875 53.473125 10.66796875 59.743125 10.66796875 66.203125 C13.53484375 66.265 16.40171875 66.326875 19.35546875 66.390625 C20.24967529 66.41793701 21.14388184 66.44524902 22.06518555 66.47338867 C26.75400883 66.52229083 29.87808297 66.29034951 33.66796875 63.203125 C34.80420994 60.93064262 34.93243718 59.42009736 35.04296875 56.890625 C35.09195313 56.13136719 35.1409375 55.37210938 35.19140625 54.58984375 C34.35747788 50.7873793 32.80352624 49.46262913 29.66796875 47.203125 C26.36519525 46.60914068 23.19713053 46.7298998 19.85546875 46.890625 C15.30765625 47.0453125 15.30765625 47.0453125 10.66796875 47.203125 Z " fill="#A5BBE8" transform="translate(503.33203125,107.796875)"/>
<path d="M0 0 C0.68578125 -0.01224609 1.3715625 -0.02449219 2.078125 -0.03710938 C5.81796797 -0.04802331 7.4349737 0.0608158 10.625 2.1875 C10.87922506 5.15581652 10.948576 7.91362677 10.8828125 10.87890625 C10.87619598 11.73935043 10.86957947 12.59979462 10.86276245 13.48631287 C10.83930302 16.24123447 10.79557084 18.99536273 10.75 21.75 C10.71500526 24.50811265 10.68422209 27.26618269 10.65866089 30.0243988 C10.64160679 31.74278521 10.61840324 33.46112304 10.58865356 35.17933655 C10.56341384 37.1819353 10.5889538 39.18506661 10.625 41.1875 C11.12 41.6825 11.12 41.6825 11.625 42.1875 C12.19347656 41.47464844 12.76195312 40.76179688 13.34765625 40.02734375 C14.95351884 38.03543072 16.58111888 36.06090613 18.2265625 34.1015625 C20.56772237 31.35731557 20.56772237 31.35731557 22.1484375 28.8984375 C23.88911265 26.56150898 24.97240204 25.46278748 27.625 24.1875 C33.59421028 23.36630883 39.63619542 23.78824636 45.625 24.1875 C46.19262695 26.08007812 46.19262695 26.08007812 46.625 28.1875 C45.54296875 29.90625 45.54296875 29.90625 43.8125 31.6875 C43.17699219 32.37714844 42.54148437 33.06679687 41.88671875 33.77734375 C41.14035156 34.57269531 40.39398437 35.36804688 39.625 36.1875 C37.76025989 38.18197303 35.93506531 40.20587176 34.125 42.25 C33.2484375 43.21035156 32.371875 44.17070312 31.46875 45.16015625 C29.35828095 48.07469883 29.35828095 48.07469883 29.48828125 51.5390625 C30.96028496 56.26363798 33.34722653 59.58614002 36.3125 63.5 C37.4059664 64.99700564 38.49712925 66.49569671 39.5859375 67.99609375 C40.11026367 68.71394043 40.63458984 69.43178711 41.17480469 70.17138672 C43.02594285 72.74490506 44.76421401 75.37017491 46.4375 78.0625 C46.89769531 78.80242187 47.35789062 79.54234375 47.83203125 80.3046875 C48.625 82.1875 48.625 82.1875 47.625 85.1875 C45.04218164 85.40974251 42.45977813 85.61573488 39.875 85.8125 C38.78058594 85.90917969 38.78058594 85.90917969 37.6640625 86.0078125 C33.65671785 86.29925575 30.99696075 86.41854632 27.625 84.1875 C26.06933594 82.12451172 26.06933594 82.12451172 24.609375 79.6171875 C24.08085938 78.72128906 23.55234375 77.82539063 23.0078125 76.90234375 C22.46898437 75.96519531 21.93015625 75.02804688 21.375 74.0625 C20.54355469 72.64517578 20.54355469 72.64517578 19.6953125 71.19921875 C18.32911612 68.86726285 16.97285919 66.53008689 15.625 64.1875 C13.61886866 65.00281734 13.61886866 65.00281734 11.625 66.1875 C10.65480838 69.58317066 10.61481354 72.75444184 10.6875 76.25 C10.62846628 79.96912452 10.09027011 81.87196724 8.625 85.1875 C5.97909986 85.21434679 3.33346904 85.23426357 0.6875 85.25 C-0.06724609 85.25837891 -0.82199219 85.26675781 -1.59960938 85.27539062 C-3.52494313 85.28402441 -5.45035581 85.23974333 -7.375 85.1875 C-9.12682812 83.43567188 -8.50110303 81.14104967 -8.51052856 78.80690002 C-8.50850433 78.03595505 -8.5064801 77.26501007 -8.50439453 76.47070312 C-8.50614685 75.66261703 -8.50789917 74.85453094 -8.50970459 74.0219574 C-8.51412376 71.3375334 -8.51118489 68.65317472 -8.5078125 65.96875 C-8.50848552 64.11169421 -8.50945553 62.2546385 -8.51071167 60.39758301 C-8.51218873 56.50023563 -8.51003382 52.60291113 -8.50537109 48.70556641 C-8.4996738 43.698155 -8.50295276 38.69079719 -8.50894356 33.68338776 C-8.51254895 29.84710279 -8.51141069 26.01083063 -8.50881577 22.17454529 C-8.50814644 20.32767226 -8.50897513 18.48079808 -8.51129532 16.63392639 C-8.51382149 14.05735168 -8.50998177 11.48086499 -8.50439453 8.90429688 C-8.50641876 8.1333519 -8.50844299 7.36240692 -8.51052856 6.56809998 C-8.48109701 -0.72036125 -6.64198697 0.00617285 0 0 Z " fill="#A7BCEA" transform="translate(697.375,103.8125)"/>
<path d="M0 0 C2.38096693 1.27693463 4.73051683 2.59855196 7.07519531 3.94091797 C8.83211053 4.92819352 10.58994716 5.9138309 12.34863281 6.89794922 C13.23518555 7.39504395 14.12173828 7.89213867 15.03515625 8.40429688 C19.21898951 10.71851318 23.4586358 12.92237966 27.70019531 15.12841797 C47.92248469 25.71185204 47.92248469 25.71185204 50.70019531 29.87841797 C51.03977094 33.95332549 51.01352017 35.40843068 48.70019531 38.87841797 C46.63245392 39.25594139 46.63245392 39.25594139 44.03137207 39.2593689 C42.55489952 39.27205811 42.55489952 39.27205811 41.04859924 39.28500366 C39.96489548 39.27893097 38.88119171 39.27285828 37.76464844 39.26660156 C36.62640121 39.27185852 35.48815399 39.27711548 34.31541443 39.28253174 C30.53728683 39.29578047 26.7595775 39.28697614 22.98144531 39.27685547 C20.36592528 39.27887479 17.75040579 39.28178504 15.1348877 39.28555298 C9.64700758 39.29101479 4.15924848 39.28380787 -1.32861328 39.26953125 C-7.67823405 39.25320379 -14.02756586 39.25849201 -20.37717962 39.27501047 C-26.47903632 39.29025057 -32.58076465 39.28865566 -38.68263245 39.27986526 C-41.28227275 39.2778582 -43.88192038 39.28034016 -46.48155212 39.28730392 C-50.10932193 39.29488818 -53.73653004 39.28335611 -57.36425781 39.26660156 C-58.44796158 39.27267426 -59.53166534 39.27874695 -60.64820862 39.28500366 C-61.63252365 39.27654419 -62.61683868 39.26808472 -63.63098145 39.2593689 C-64.48933846 39.25823782 -65.34769547 39.25710674 -66.23206329 39.25594139 C-67.25559528 39.0690673 -67.25559528 39.0690673 -68.29980469 38.87841797 C-70.80980189 35.11342216 -70.91457213 33.33548191 -70.29980469 28.87841797 C-65.72693671 24.39348976 -60.41272062 21.51436927 -54.79980469 18.50341797 C-53.91196289 18.0208252 -53.02412109 17.53823242 -52.109375 17.04101562 C-46.05789199 13.77015076 -39.94183989 10.67020573 -33.76464844 7.64404297 C-28.93623815 5.18356783 -24.23466952 2.51347026 -19.5390625 -0.19042969 C-11.62224692 -4.72714391 -7.99567723 -3.89937805 0 0 Z M-16.03808594 12.04638672 C-16.94107422 12.52785156 -17.8440625 13.00931641 -18.77441406 13.50537109 C-19.71091797 14.02035156 -20.64742187 14.53533203 -21.61230469 15.06591797 C-22.53720703 15.5615625 -23.46210937 16.05720703 -24.41503906 16.56787109 C-29.42129873 19.26135977 -34.37796586 22.03393457 -39.29980469 24.87841797 C-39.29980469 25.53841797 -39.29980469 26.19841797 -39.29980469 26.87841797 C-19.82980469 26.87841797 -0.35980469 26.87841797 19.70019531 26.87841797 C16.37871507 23.55693773 14.41664886 21.97019523 10.41894531 19.89794922 C8.90880859 19.11194336 8.90880859 19.11194336 7.36816406 18.31005859 C6.32273438 17.77574219 5.27730469 17.24142578 4.20019531 16.69091797 C3.15476563 16.145 2.10933594 15.59908203 1.03222656 15.03662109 C-7.31561394 10.08820366 -7.31561394 10.08820366 -16.03808594 12.04638672 Z " fill="#A6BBE7" transform="translate(143.2998046875,89.12158203125)"/>
<path d="M0 0 C5.7997394 5.17956924 8.41973921 10.25602264 9.20507812 18.03005981 C9.30623309 20.10862398 9.35419774 22.18086595 9.37890625 24.26171875 C9.39590073 25.01540237 9.4128952 25.769086 9.43040466 26.54560852 C9.48299104 28.92615645 9.52358923 31.30669258 9.5625 33.6875 C9.60662954 36.07893503 9.6534397 38.47024644 9.70530701 40.86152649 C9.73692481 42.34172622 9.76391576 43.82203446 9.78553772 45.30241394 C9.8593738 48.99441104 10.26431821 52.39052135 11 56 C10 57 10 57 6.18359375 57.09765625 C4.60153318 57.09098089 3.01948841 57.07901875 1.4375 57.0625 C0.63119141 57.05798828 -0.17511719 57.05347656 -1.00585938 57.04882812 C-3.00393756 57.03700518 -5.00197783 57.01906914 -7 57 C-7.33 56.01 -7.66 55.02 -8 54 C-8.48726562 54.28875 -8.97453125 54.5775 -9.4765625 54.875 C-16.47486631 58.53956636 -23.20871901 59.05660061 -31 58 C-36.74134035 55.89185159 -40.49704332 51.88290931 -44 47 C-45.73532105 41.79403685 -46.1586238 36.58184681 -43.87109375 31.484375 C-39.29001377 24.25990422 -34.28765785 21.05064224 -26 19 C-23.36033278 18.72433032 -20.71278937 18.51572333 -18.0625 18.375 C-17.37865234 18.33632812 -16.69480469 18.29765625 -15.99023438 18.2578125 C-14.32720487 18.16477588 -12.66364153 18.08136213 -11 18 C-10.72323057 14.26237638 -10.72323057 14.26237638 -12.5 11.125 C-15.62175487 9.72021031 -17.74619207 9.87872787 -21.09765625 10.1875 C-23.28374281 10.87251693 -23.28374281 10.87251693 -24.203125 13.54296875 C-26 16 -26 16 -27.82592773 16.40869141 C-30.13073405 16.49261488 -32.38451121 16.43530088 -34.6875 16.3125 C-35.48478516 16.28994141 -36.28207031 16.26738281 -37.10351562 16.24414062 C-39.06981334 16.18526944 -41.03514491 16.09558755 -43 16 C-44.20023025 12.39930926 -43.5402919 10.5174493 -42.13671875 7.0625 C-39.05046891 1.46270647 -33.82751278 -1.56028636 -27.88671875 -3.47265625 C-18.70699808 -6.03841669 -7.89861329 -5.894234 0 0 Z M-24.1875 32.625 C-26.23352299 34.9197011 -26.23352299 34.9197011 -26.5 38.0625 C-26.1742769 40.91094656 -26.1742769 40.91094656 -25 42.875 C-21.75903212 44.69804443 -18.56383844 44.59628425 -15 44 C-11.85255481 42.76546291 -11.85255481 42.76546291 -10 40 C-9.5962686 36.95366309 -9.70646176 34.05279768 -10 31 C-17.33115376 30.45891588 -17.33115376 30.45891588 -24.1875 32.625 Z " fill="#A6BCE9" transform="translate(608,132)"/>
<path d="M0 0 C1.13308594 -0.0299707 1.13308594 -0.0299707 2.2890625 -0.06054688 C9.93007195 -0.05398243 16.57984367 3.01734367 22 8.4375 C25.73289708 15.63665865 26.15935965 22.58943276 26.3515625 30.51953125 C26.37471527 31.37431564 26.39786804 32.22910004 26.42172241 33.10978699 C26.4691288 34.90573783 26.51438925 36.70174646 26.55761719 38.49780273 C26.62520886 41.25853053 26.70283539 44.01885766 26.78125 46.77929688 C26.82612386 48.52602628 26.87041548 50.27277076 26.9140625 52.01953125 C26.93796051 52.84862503 26.96185852 53.67771881 26.98648071 54.53193665 C27.03008398 56.49997995 27.02056697 58.46908117 27 60.4375 C24.96519016 62.47230984 20.91279983 61.62257583 18.125 61.625 C17.02478516 61.64336914 17.02478516 61.64336914 15.90234375 61.66210938 C12.06436486 61.67259566 10.26652926 61.61518617 7 59.4375 C6.05125 59.89125 5.1025 60.345 4.125 60.8125 C-2.10791059 63.73788298 -9.43421718 63.5529989 -15.921875 61.5234375 C-21.246507 59.08166839 -24.37708077 56.68333846 -27 51.4375 C-28.78793044 46.07370867 -28.69055197 40.54977662 -26.9375 35.1875 C-23.03177259 29.6438869 -18.36974445 25.84566864 -11.8203125 23.89453125 C-5.60850765 22.88790913 0.73034786 23.22979373 7 23.4375 C5.90213575 18.02962615 5.90213575 18.02962615 2 14.4375 C0.04012369 14.2245055 0.04012369 14.2245055 -2 14.5 C-2.680625 14.55285156 -3.36125 14.60570312 -4.0625 14.66015625 C-6.28444761 15.30008499 -6.28444761 15.30008499 -7.23828125 17.9765625 C-7.81964844 18.78867188 -8.40101563 19.60078125 -9 20.4375 C-11.94093052 20.81609559 -14.27644958 20.91525614 -17.1875 20.75 C-17.93708984 20.72744141 -18.68667969 20.70488281 -19.45898438 20.68164062 C-21.3068447 20.62279157 -23.15367667 20.53310938 -25 20.4375 C-26.05859375 18.6484375 -26.05859375 18.6484375 -27 16.4375 C-25.34888433 10.4934836 -22.25805056 6.6760869 -17 3.4375 C-11.33828756 0.70713796 -6.24060578 -0.05857224 0 0 Z M-7.36328125 37.26171875 C-9.245777 39.40031886 -9.245777 39.40031886 -9.4375 42.5 C-9.1911209 45.36212094 -9.1911209 45.36212094 -7.9375 47.3125 C-4.87480351 49.0908399 -2.46923068 48.79638593 1 48.4375 C3.31279611 47.28110194 5.17409828 46.26340172 7 44.4375 C7.07179964 42.91821962 7.08392007 41.39582518 7.0625 39.875 C7.05347656 39.04871094 7.04445313 38.22242188 7.03515625 37.37109375 C7.02355469 36.73300781 7.01195312 36.09492188 7 35.4375 C5.08458862 35.32908049 3.16740227 35.25171921 1.25 35.1875 C0.18265625 35.14109375 -0.8846875 35.0946875 -1.984375 35.046875 C-5.09226517 35.19174265 -5.09226517 35.19174265 -7.36328125 37.26171875 Z " fill="#A6BCE9" transform="translate(460,127.5625)"/>
<path d="M0 0 C4.28724811 3.9574598 6.50597667 9.93409804 6.85354614 15.70048523 C6.85434174 16.45247696 6.85513733 17.20446869 6.85595703 17.97924805 C6.85910919 18.83661057 6.86226135 19.69397308 6.86550903 20.57731628 C6.8634848 21.4941066 6.86146057 22.41089691 6.859375 23.35546875 C6.86033173 24.30186722 6.86128845 25.24826569 6.86227417 26.2233429 C6.86295375 28.21961534 6.86111493 30.21589002 6.85693359 32.2121582 C6.85156441 35.28016057 6.85689522 38.34801771 6.86328125 41.41601562 C6.86262078 43.35416699 6.86134026 45.29231827 6.859375 47.23046875 C6.86139923 48.15333176 6.86342346 49.07619476 6.86550903 50.02702332 C6.84152406 56.47878844 6.84152406 56.47878844 5.7265625 57.59375 C2.86388683 57.66700168 0.0258435 57.68613205 -2.8359375 57.65625 C-3.64224609 57.65173828 -4.44855469 57.64722656 -5.27929688 57.64257812 C-7.27737506 57.63075518 -9.27541533 57.61281914 -11.2734375 57.59375 C-12.98175553 54.17711394 -12.47491528 50.26229089 -12.51953125 46.5 C-12.5524587 44.6471305 -12.58567053 42.79426603 -12.61914062 40.94140625 C-12.66664983 38.01159003 -12.71109722 35.08179584 -12.75024414 32.15185547 C-12.78983566 29.33018917 -12.84140021 26.50893918 -12.89453125 23.6875 C-12.9029454 22.80727173 -12.91135956 21.92704346 -12.92002869 21.0201416 C-12.79387599 16.3240216 -12.79387599 16.3240216 -15.2734375 12.59375 C-17.34360638 12.23704083 -17.34360638 12.23704083 -19.6484375 12.28125 C-20.41929687 12.26449219 -21.19015625 12.24773437 -21.984375 12.23046875 C-25.05424207 12.71766608 -26.13647709 13.29278966 -28.2734375 15.59375 C-28.90130823 18.57301424 -28.85444671 21.53060324 -28.84765625 24.56640625 C-28.86890312 25.88468666 -28.86890312 25.88468666 -28.89057922 27.229599 C-28.93253823 30.03860685 -28.94773037 32.84697262 -28.9609375 35.65625 C-28.98997243 38.46879893 -29.02449747 41.28118392 -29.06343079 44.09361267 C-29.08595207 45.84415797 -29.1017508 47.59480484 -29.11027527 49.34547424 C-29.16389381 55.37466262 -29.16389381 55.37466262 -30.2734375 57.59375 C-33.08600031 57.62059312 -35.89830991 57.64051188 -38.7109375 57.65625 C-39.51337891 57.66462891 -40.31582031 57.67300781 -41.14257812 57.68164062 C-43.18638971 57.6902643 -45.23027652 57.6460315 -47.2734375 57.59375 C-48.2734375 56.59375 -48.2734375 56.59375 -48.39369202 54.23362732 C-48.39147141 53.18771927 -48.38925079 52.14181122 -48.38696289 51.06420898 C-48.38688736 49.88306015 -48.38681183 48.70191132 -48.38673401 47.48497009 C-48.38157272 46.1995784 -48.37641144 44.91418671 -48.37109375 43.58984375 C-48.3696788 42.28169205 -48.36826385 40.97354034 -48.36680603 39.62574768 C-48.3629816 36.14212141 -48.35315196 32.65853661 -48.34210205 29.17492676 C-48.33188632 25.62248292 -48.32730806 22.07003241 -48.32226562 18.51757812 C-48.31152962 11.54295168 -48.2944541 4.56835283 -48.2734375 -2.40625 C-43.23332307 -3.4504276 -38.41360094 -4.07369112 -33.2734375 -3.40625 C-30.6484375 -1.40625 -30.6484375 -1.40625 -29.2734375 0.59375 C-28.76554688 0.31660156 -28.25765625 0.03945312 -27.734375 -0.24609375 C-18.41069524 -5.15237467 -9.02988362 -6.18780869 0 0 Z " fill="#A6BCE9" transform="translate(673.2734375,131.40625)"/>
<path d="M0 0 C6.62039212 6.1911722 9.02945261 13.91252733 9.40209961 22.78173828 C9.55873099 32.04351365 7.7972071 39.36712573 3 47.3125 C-2.7112652 53.21299386 -10.21575413 56.23195468 -18.30639648 56.71533203 C-27.77859855 56.86503183 -35.89016805 54.85535825 -42.9609375 48.13671875 C-50.46591197 39.00261567 -51.00818922 28.33652772 -50 17 C-48.31734842 9.43711441 -45.45920491 3.16745111 -39.03125 -1.3984375 C-26.03484078 -9.31526424 -12.54554456 -8.3274899 0 0 Z M-28 11 C-31.53284107 16.80395319 -32.55249271 22.25958889 -32 29 C-29.96135181 36.01791536 -29.96135181 36.01791536 -25 41 C-20.48092453 41.80395537 -17.02694289 41.61179576 -13.0625 39.25 C-9.08872698 32.98829706 -8.42011191 25.81353826 -9.625 18.5625 C-10.65602958 14.55437252 -11.70752932 11.68596292 -15 9 C-19.98125956 7.33958015 -23.93958991 7.40363678 -28 11 Z " fill="#A6BBE8" transform="translate(361,134)"/>
<path d="M0 0 C1.23492187 -0.03738281 2.46984375 -0.07476562 3.7421875 -0.11328125 C7.83543321 0.40191942 8.56699015 1.16708335 11.125 4.3125 C12.40527344 7.33691406 12.40527344 7.33691406 13.484375 10.828125 C13.87753906 12.07851562 14.27070313 13.32890625 14.67578125 14.6171875 C15.07579163 15.93220933 15.4755278 17.24731459 15.875 18.5625 C16.28922325 19.89358488 16.70457641 21.22431869 17.12109375 22.5546875 C18.13356396 25.8040105 19.13436429 29.05646688 20.125 32.3125 C22.22622419 29.16066371 23.10858017 26.54077269 24.21875 22.9296875 C24.60933594 21.68058594 24.99992187 20.43148437 25.40234375 19.14453125 C26.01713153 17.15916606 26.62942289 15.17307724 27.23876953 13.18603516 C27.82974818 11.26523606 28.43035151 9.34740645 29.03125 7.4296875 C29.38509766 6.28097168 29.73894531 5.13225586 30.10351562 3.94873047 C31.125 1.3125 31.125 1.3125 33.125 0.3125 C39.09032949 -0.10663263 44.55656539 -0.09547172 50.125 2.3125 C49.4860932 8.39241954 47.18940902 13.78395539 45 19.4375 C41.68370302 28.11899941 38.48398168 36.82267824 35.50927734 45.62744141 C33.67027052 50.99918611 31.50757802 56.15926965 29.125 61.3125 C27.06406592 61.535793 25.0011161 61.74052887 22.9375 61.9375 C21.78894531 62.05351562 20.64039063 62.16953125 19.45703125 62.2890625 C15.9477633 62.31374668 14.19436355 61.95187874 11.125 60.3125 C9.84228516 58.19970703 9.84228516 58.19970703 8.9140625 55.5703125 C8.55981201 54.59602295 8.20556152 53.6217334 7.84057617 52.61791992 C7.30074097 51.04361206 7.30074097 51.04361206 6.75 49.4375 C6.36497314 48.36282471 5.97994629 47.28814941 5.58325195 46.1809082 C4.41183063 42.89768328 3.26650031 39.60623 2.125 36.3125 C1.46081854 34.42796802 0.79552861 32.54382618 0.12890625 30.66015625 C-1.04880338 27.32315737 -2.21350318 23.98209436 -3.3671875 20.63671875 C-4.90436043 16.1924521 -6.5450774 11.79045951 -8.24609375 7.40625 C-8.875 5.3125 -8.875 5.3125 -8.875 1.3125 C-5.93776222 -0.15611889 -3.26907643 0.06456596 0 0 Z " fill="#A7BCE9" transform="translate(379.875,127.6875)"/>
<path d="M0 0 C0.265625 2.27734375 0.265625 2.27734375 0.25 4.9375 C0.25773437 6.25041016 0.25773437 6.25041016 0.265625 7.58984375 C0 10 0 10 -2 13 C-4.06774139 13.37473011 -4.06774139 13.37473011 -6.66882324 13.3742218 C-7.65313828 13.38123611 -8.63745331 13.38825043 -9.65159607 13.39547729 C-10.73529984 13.38783356 -11.8190036 13.38018982 -12.93554688 13.37231445 C-14.64291771 13.37779045 -14.64291771 13.37779045 -16.38478088 13.38337708 C-20.16292041 13.39151061 -23.94063481 13.37784882 -27.71875 13.36328125 C-30.3342692 13.36276298 -32.9497888 13.36327939 -35.56530762 13.36479187 C-41.05319333 13.36567537 -46.54095565 13.35458299 -52.02880859 13.33618164 C-58.3783816 13.31501309 -64.72777379 13.31150377 -71.07737494 13.3177436 C-77.1792199 13.32343352 -83.2809908 13.31769212 -89.38282776 13.30657005 C-91.98246503 13.30270983 -94.58210778 13.30157322 -97.18174744 13.3031559 C-100.80942287 13.3035251 -104.43681942 13.29094692 -108.06445312 13.2746582 C-109.14815689 13.27713562 -110.23186066 13.27961304 -111.34840393 13.28216553 C-112.33271896 13.27508072 -113.317034 13.26799591 -114.33117676 13.26069641 C-115.18953377 13.25864354 -116.04789078 13.25659067 -116.93225861 13.25447559 C-119 13 -119 13 -121 11 C-121.265625 8.46875 -121.265625 8.46875 -121.25 5.5 C-121.25515625 4.5203125 -121.2603125 3.540625 -121.265625 2.53125 C-121 0 -121 0 -119 -2 C-117.05554676 -2.26450634 -117.05554676 -2.26450634 -114.63056946 -2.28520203 C-113.7123793 -2.29781067 -112.79418915 -2.31041931 -111.84817505 -2.32341003 C-110.83778168 -2.32714127 -109.82738831 -2.3308725 -108.78637695 -2.3347168 C-107.72443619 -2.34636871 -106.66249542 -2.35802063 -105.56837463 -2.37002563 C-102.04169309 -2.40614287 -98.51508111 -2.42792098 -94.98828125 -2.44921875 C-92.54167564 -2.47046431 -90.0950762 -2.49243112 -87.64848328 -2.51509094 C-82.51120733 -2.56056961 -77.37393859 -2.59933541 -72.23657227 -2.63305664 C-65.65691661 -2.67648604 -59.07746247 -2.73321921 -52.49795246 -2.7946043 C-47.44076083 -2.84085504 -42.38353707 -2.88161911 -37.32628441 -2.92057228 C-34.90102258 -2.93960396 -32.47577076 -2.95995882 -30.05053139 -2.98166466 C-26.65389909 -3.01091741 -23.25729188 -3.03317943 -19.8605957 -3.0534668 C-18.86032349 -3.06327072 -17.86005127 -3.07307465 -16.82946777 -3.08317566 C-3.14408271 -3.14408271 -3.14408271 -3.14408271 0 0 Z " fill="#A6BCEA" transform="translate(194,194)"/>
<path d="M0 0 C1.29442017 0.00616333 1.29442017 0.00616333 2.61499023 0.01245117 C4.01974609 0.01535156 4.01974609 0.01535156 5.45288086 0.01831055 C6.43321289 0.03055664 7.41354492 0.04280273 8.42358398 0.05541992 C9.4077832 0.05606445 10.39198242 0.05670898 11.40600586 0.05737305 C18.72090866 0.1027446 18.72090866 0.1027446 19.86108398 1.24291992 C19.90201336 3.57589425 19.90350122 5.90997217 19.86108398 8.24291992 C18.21108398 8.57291992 16.56108398 8.90291992 14.86108398 9.24291992 C14.86108398 22.11291992 14.86108398 34.98291992 14.86108398 48.24291992 C16.51108398 48.90291992 18.16108398 49.56291992 19.86108398 50.24291992 C20.86108398 52.68041992 20.86108398 52.68041992 20.86108398 55.24291992 C19.88452148 56.88354492 19.88452148 56.88354492 17.86108398 58.24291992 C14.98317019 58.51547184 12.35659598 58.61603039 9.48608398 58.55541992 C8.73069336 58.55864258 7.97530273 58.56186523 7.19702148 58.56518555 C2.98025242 58.52463969 -0.29216521 58.16629533 -4.13891602 56.24291992 C-4.13891602 54.26291992 -4.13891602 52.28291992 -4.13891602 50.24291992 C-1.66391602 49.74791992 -1.66391602 49.74791992 0.86108398 49.24291992 C0.86108398 36.04291992 0.86108398 22.84291992 0.86108398 9.24291992 C-0.45891602 8.91291992 -1.77891602 8.58291992 -3.13891602 8.24291992 C-4.13891602 7.24291992 -4.13891602 7.24291992 -4.32641602 4.80541992 C-4.08634899 1.52450393 -3.34638464 0.38005396 0 0 Z " fill="#A8BCE8" transform="translate(125.138916015625,130.757080078125)"/>
<path d="M0 0 C0.86931152 0.01047363 1.73862305 0.02094727 2.63427734 0.03173828 C3.57529297 0.03818359 4.51630859 0.04462891 5.48583984 0.05126953 C6.47068359 0.06802734 7.45552734 0.08478516 8.47021484 0.10205078 C9.46279297 0.11107422 10.45537109 0.12009766 11.47802734 0.12939453 C13.93399618 0.15300962 16.38948653 0.18594279 18.84521484 0.22705078 C19.47021484 3.60205078 19.47021484 3.60205078 19.84521484 7.22705078 C19.18521484 7.88705078 18.52521484 8.54705078 17.84521484 9.22705078 C16.85521484 9.22705078 15.86521484 9.22705078 14.84521484 9.22705078 C14.88930799 14.72690999 14.9590769 20.22561458 15.05273438 25.72485352 C15.08097221 27.59585382 15.10217274 29.46697404 15.11621094 31.33813477 C15.13760201 34.02699299 15.1842303 36.71440516 15.23583984 39.40283203 C15.23706848 40.24042557 15.23829712 41.0780191 15.23956299 41.94099426 C15.2940009 46.60017765 15.2940009 46.60017765 17.88330078 50.27856445 C18.53073242 50.59156494 19.17816406 50.90456543 19.84521484 51.22705078 C19.51521484 53.53705078 19.18521484 55.84705078 18.84521484 58.22705078 C15.57445602 58.28509838 12.30382961 58.32066243 9.03271484 58.35205078 C8.10394531 58.36880859 7.17517578 58.38556641 6.21826172 58.40283203 C4.87924805 58.4125 4.87924805 58.4125 3.51318359 58.42236328 C2.69100342 58.43283691 1.86882324 58.44331055 1.02172852 58.45410156 C-1.15478516 58.22705078 -1.15478516 58.22705078 -4.15478516 56.22705078 C-4.46728516 53.72705078 -4.46728516 53.72705078 -4.15478516 51.22705078 C-3.49478516 50.56705078 -2.83478516 49.90705078 -2.15478516 49.22705078 C-1.16478516 49.22705078 -0.17478516 49.22705078 0.84521484 49.22705078 C0.84521484 36.02705078 0.84521484 22.82705078 0.84521484 9.22705078 C-0.47478516 8.89705078 -1.79478516 8.56705078 -3.15478516 8.22705078 C-4.15478516 7.22705078 -4.15478516 7.22705078 -4.34228516 4.78955078 C-4.10150687 1.49891427 -3.35986754 0.35403091 0 0 Z " fill="#A6BBE9" transform="translate(161.15478515625,130.77294921875)"/>
<path d="M0 0 C0.97582031 0.00322266 1.95164062 0.00644531 2.95703125 0.00976562 C3.93285156 -0.00634766 4.90867187 -0.02246094 5.9140625 -0.0390625 C6.84605469 -0.03970703 7.77804688 -0.04035156 8.73828125 -0.04101562 C9.59486328 -0.04399658 10.45144531 -0.04697754 11.33398438 -0.05004883 C12.38489258 0.13424683 12.38489258 0.13424683 13.45703125 0.32226562 C15.45703125 3.32226562 15.45703125 3.32226562 15.08203125 6.00976562 C14.77265625 7.15445313 14.77265625 7.15445313 14.45703125 8.32226562 C12.80703125 8.65226563 11.15703125 8.98226562 9.45703125 9.32226562 C9.4764175 14.82225921 9.52802819 20.32064511 9.60961914 25.82006836 C9.63282615 27.69107301 9.6472012 29.56220879 9.65258789 31.43334961 C9.66185807 34.12241591 9.70280284 36.80941208 9.75 39.49804688 C9.74606735 40.33564041 9.7421347 41.17323395 9.73808289 42.03620911 C9.74886742 44.67512585 9.74886742 44.67512585 10.45703125 48.32226562 C12.83464933 50.45294568 12.83464933 50.45294568 15.45703125 51.32226562 C14.58203125 57.19726562 14.58203125 57.19726562 13.45703125 58.32226562 C10.1728119 58.57311421 6.87470317 58.50748854 3.58203125 58.50976562 C2.65777344 58.52201172 1.73351562 58.53425781 0.78125 58.546875 C-0.55099609 58.54977539 -0.55099609 58.54977539 -1.91015625 58.55273438 C-2.72597168 58.55684326 -3.54178711 58.56095215 -4.38232422 58.56518555 C-6.54296875 58.32226562 -6.54296875 58.32226562 -9.54296875 56.32226562 C-9.73046875 53.19726562 -9.73046875 53.19726562 -9.54296875 50.32226562 C-7.89296875 49.66226563 -6.24296875 49.00226563 -4.54296875 48.32226562 C-4.21296875 35.45226562 -3.88296875 22.58226562 -3.54296875 9.32226562 C-5.19296875 8.99226562 -6.84296875 8.66226563 -8.54296875 8.32226562 C-9.54296875 7.32226562 -9.54296875 7.32226562 -9.73046875 4.88476562 C-9.29832557 -1.0211912 -4.67309851 0.03554916 0 0 Z " fill="#A6BBE9" transform="translate(94.54296875,130.677734375)"/>
<path d="M0 0 C0.79792969 0.00386719 1.59585937 0.00773437 2.41796875 0.01171875 C3.21589844 0.00785156 4.01382812 0.00398438 4.8359375 0 C10.79136108 0.01011108 10.79136108 0.01011108 11.91796875 1.13671875 C12.01828755 3.59577096 12.05415055 6.02675303 12.04736328 8.48632812 C12.0491156 9.25539993 12.05086792 10.02447174 12.05267334 10.81684875 C12.05709215 13.37141138 12.05415377 15.92590536 12.05078125 18.48046875 C12.05145428 20.24784356 12.0524243 22.01521828 12.05368042 23.78259277 C12.05515743 27.49162678 12.05300273 31.20063675 12.04833984 34.90966797 C12.04264255 39.67494368 12.04592154 44.44016307 12.05191231 49.20543671 C12.05551783 52.85642932 12.05437937 56.50740848 12.05178452 60.15840149 C12.05111522 61.91595974 12.05194375 63.6735192 12.05426407 65.43107605 C12.05679046 67.88312029 12.05295021 70.33507206 12.04736328 72.78710938 C12.04938751 73.5206514 12.05141174 74.25419342 12.05349731 75.00996399 C12.03223139 80.02245611 12.03223139 80.02245611 10.91796875 81.13671875 C9.39868837 81.20851839 7.87629393 81.22063882 6.35546875 81.19921875 C5.11603516 81.18568359 5.11603516 81.18568359 3.8515625 81.171875 C2.89443359 81.15447266 2.89443359 81.15447266 1.91796875 81.13671875 C2.90796875 80.64171875 2.90796875 80.64171875 3.91796875 80.13671875 C4.41296875 79.14671875 4.41296875 79.14671875 4.91796875 78.13671875 C6.23796875 78.46671875 7.55796875 78.79671875 8.91796875 79.13671875 C8.58796875 78.80671875 8.25796875 78.47671875 7.91796875 78.13671875 C8.41296875 77.14671875 8.41296875 77.14671875 8.91796875 76.13671875 C9.01011506 73.82884001 9.03546272 71.51821025 9.03149414 69.20849609 C9.03164017 68.49619339 9.03178619 67.78389069 9.03193665 67.05000305 C9.03123886 64.69085669 9.02345272 62.33178886 9.015625 59.97265625 C9.01376035 58.33883711 9.01233667 56.70501741 9.01133728 55.07119751 C9.00751584 50.76723695 8.99768873 46.46331004 8.9866333 42.15936279 C8.97641117 37.76900691 8.97183794 33.3786456 8.96679688 28.98828125 C8.95606614 20.37107829 8.93899418 11.75390271 8.91796875 3.13671875 C4.62796875 3.13671875 0.33796875 3.13671875 -4.08203125 3.13671875 C-4.1070874 4.17078857 -4.13214355 5.2048584 -4.15795898 6.27026367 C-4.25236555 10.11885262 -4.35250416 13.96727504 -4.4543457 17.81567383 C-4.49756909 19.47904556 -4.53925271 21.14245807 -4.5793457 22.8059082 C-4.63735457 25.20145943 -4.70095954 27.59680783 -4.765625 29.9921875 C-4.78233749 30.73196335 -4.79904999 31.4717392 -4.81626892 32.2339325 C-4.92275885 35.97317807 -5.20390877 39.49610419 -6.08203125 43.13671875 C-6.41203125 43.13671875 -6.74203125 43.13671875 -7.08203125 43.13671875 C-7.10667699 37.17358709 -7.12486525 31.2104848 -7.13696289 25.24731445 C-7.14200403 23.21703577 -7.14883682 21.18676073 -7.1574707 19.15649414 C-7.16954592 16.24494528 -7.17526159 13.33344425 -7.1796875 10.421875 C-7.18484879 9.50833755 -7.19001007 8.59480011 -7.19532776 7.65357971 C-7.19552293 5.48096448 -7.1441493 3.30844579 -7.08203125 1.13671875 C-5.19650595 -0.74880655 -2.50434294 0.00425186 0 0 Z " fill="#A1B3D7" transform="translate(291.08203125,107.86328125)"/>
<path d="M0 0 C0.33 0 0.66 0 1 0 C1.33 3.63 1.66 7.26 2 11 C4.8781846 11.95939487 6.66316695 12.12357029 9.65068054 12.12025452 C10.60560394 12.12162918 11.56052734 12.12300385 12.54438782 12.12442017 C14.11315926 12.11902725 14.11315926 12.11902725 15.71362305 12.11352539 C16.8162146 12.11367142 17.91880615 12.11381744 19.05480957 12.1139679 C22.70713249 12.11327002 26.35940471 12.10548344 30.01171875 12.09765625 C32.5409187 12.09579163 35.07011902 12.09436793 37.59931946 12.09336853 C43.58098662 12.08993768 49.56263195 12.08205244 55.54429036 12.07201904 C62.35438502 12.06084387 69.16448054 12.05534391 75.97458208 12.05032361 C89.98306483 12.03986946 103.99153142 12.02227875 118 12 C118.33 10.02 118.66 8.04 119 6 C119.33 6 119.66 6 120 6 C119.125 12.875 119.125 12.875 118 14 C116.48646296 14.10011501 114.96827294 14.13075449 113.45143127 14.13371277 C112.46849091 14.13797775 111.48555054 14.14224274 110.4728241 14.14663696 C108.84187553 14.14595718 108.84187553 14.14595718 107.17797852 14.14526367 C106.03987732 14.14862228 104.90177612 14.1519809 103.72918701 14.15544128 C99.94574916 14.16498437 96.1623554 14.16689606 92.37890625 14.16796875 C89.76195761 14.17117892 87.14500916 14.1745428 84.52806091 14.17805481 C79.03424795 14.18445743 73.54044705 14.18593651 68.04663086 14.18530273 C61.6897097 14.18470178 55.33287336 14.19525538 48.97597367 14.2110464 C42.86934463 14.22567732 36.76275642 14.22929137 30.65611076 14.22869301 C28.05367626 14.22987728 25.4512412 14.23432383 22.84881783 14.24202538 C19.21627796 14.25176873 15.58395907 14.24896967 11.95141602 14.24291992 C10.3235038 14.25134918 10.3235038 14.25134918 8.66270447 14.25994873 C7.67694427 14.25575424 6.69118408 14.25155975 5.67555237 14.24723816 C4.81589654 14.24778293 3.95624071 14.24832769 3.07053471 14.24888897 C1 14 1 14 -1 12 C-1.23046875 9.43359375 -1.23046875 9.43359375 -1.1875 6.4375 C-1.18105469 5.44621094 -1.17460938 4.45492187 -1.16796875 3.43359375 C-1 1 -1 1 0 0 Z " fill="#A7B8D8" transform="translate(74,193)"/>
<path d="M0 0 C0.66 0 1.32 0 2 0 C2 28.05 2 56.1 2 85 C1.01 84.67 0.02 84.34 -1 84 C-1.02312312 73.19541915 -1.04091493 62.39084414 -1.05181217 51.58624363 C-1.05704107 46.5697753 -1.06413883 41.55332385 -1.07543945 36.53686523 C-1.0862681 31.69990306 -1.09227679 26.86295716 -1.09487724 22.02598381 C-1.09673153 20.17631715 -1.10035222 18.32665143 -1.10573006 16.47699165 C-1.1129402 13.89552986 -1.11399095 11.31413618 -1.11352539 8.73266602 C-1.11712067 7.96014999 -1.12071594 7.18763397 -1.12442017 6.39170837 C-1.11405216 1.11405216 -1.11405216 1.11405216 0 0 Z " fill="#A2B3D5" transform="translate(690,104)"/>
<path d="M0 0 C1.67177526 2.92980939 2.24929465 5.02151305 2.24291992 8.38549805 C2.24599655 9.24286057 2.24907318 10.10022308 2.25224304 10.98356628 C2.24505753 11.9003566 2.23787201 12.81714691 2.23046875 13.76171875 C2.22978142 15.18131645 2.22978142 15.18131645 2.2290802 16.6295929 C2.22606325 18.62587745 2.21819362 20.62215977 2.20581055 22.6184082 C2.1875063 25.68644468 2.18530125 28.75418014 2.18554688 31.82226562 C2.18063337 33.7604193 2.17480578 35.69857091 2.16796875 37.63671875 C2.16685593 38.55958176 2.1657431 39.48244476 2.16459656 40.43327332 C2.11606017 46.88393983 2.11606017 46.88393983 1 48 C-1.86267567 48.07325168 -4.700719 48.09238205 -7.5625 48.0625 C-8.36880859 48.05798828 -9.17511719 48.05347656 -10.00585938 48.04882812 C-12.00393756 48.03700518 -14.00197783 48.01906914 -16 48 C-17.61301773 44.77396455 -17.12053599 41.25289962 -17.09765625 37.7109375 C-17.0962413 36.89251373 -17.09482635 36.07408997 -17.09336853 35.23086548 C-17.0877629 32.61220675 -17.07520948 29.99363296 -17.0625 27.375 C-17.05748572 25.60156373 -17.05292269 23.82812613 -17.04882812 22.0546875 C-17.03779164 17.70309218 -17.02052325 13.3515605 -17 9 C-14.68941015 12.64829977 -14.65718401 16.20068395 -14.5859375 20.390625 C-14.56657135 21.09523865 -14.5472052 21.79985229 -14.5272522 22.52581787 C-14.46767265 24.76709039 -14.42115877 27.00841489 -14.375 29.25 C-14.33680021 30.77345938 -14.29774731 32.29689762 -14.2578125 33.8203125 C-14.16198982 37.54668106 -14.07787893 41.27320835 -14 45 C-13.39671875 44.98839844 -12.7934375 44.97679687 -12.171875 44.96484375 C-11.37265625 44.95582031 -10.5734375 44.94679687 -9.75 44.9375 C-8.96109375 44.92589844 -8.1721875 44.91429687 -7.359375 44.90234375 C-5 45 -5 45 -2.765625 45.56640625 C-2.18296875 45.70949219 -1.6003125 45.85257813 -1 46 C0.82901814 44.17098186 0.12868788 41.62931225 0.13894653 39.19560242 C0.1369223 38.38210831 0.13489807 37.5686142 0.1328125 36.73046875 C0.13376923 35.89792068 0.13472595 35.06537262 0.13571167 34.20759583 C0.1363937 32.44137497 0.13453783 30.67515162 0.13037109 28.90893555 C0.12504325 26.2094149 0.13030484 23.51006217 0.13671875 20.81054688 C0.13605758 19.0963538 0.1347756 17.38216083 0.1328125 15.66796875 C0.13483673 14.86054733 0.13686096 14.05312592 0.13894653 13.22123718 C0.15982922 9.03788303 0.15982922 9.03788303 -0.57058716 4.9420929 C-1 3 -1 3 0 0 Z " fill="#A8B7D2" transform="translate(678,141)"/>
<path d="M0 0 C0.66 0 1.32 0 2 0 C2.02467467 5.65999023 2.04284788 11.31994932 2.05493164 16.97998047 C2.05996787 18.90641831 2.06679712 20.83285231 2.07543945 22.75927734 C2.08753608 25.52442368 2.09323533 28.28951958 2.09765625 31.0546875 C2.10281754 31.9193161 2.10797882 32.7839447 2.11329651 33.67477417 C2.11387171 39.77225659 2.11387171 39.77225659 1 42 C-3.62 42 -8.24 42 -13 42 C-12.67 41.34 -12.34 40.68 -12 40 C-9.27734375 39.5859375 -9.27734375 39.5859375 -5.9375 39.375 C-4.83277344 39.30023438 -3.72804688 39.22546875 -2.58984375 39.1484375 C-1.73519531 39.09945312 -0.88054688 39.05046875 0 39 C-0.03552979 37.854104 -0.07105957 36.70820801 -0.10766602 35.52758789 C-0.23765837 31.29172925 -0.36095036 27.05569789 -0.48217773 22.81958008 C-0.53567534 20.9832625 -0.59101046 19.14699753 -0.64819336 17.31079102 C-0.72988864 14.67736153 -0.80505738 12.04381595 -0.87890625 9.41015625 C-0.90594131 8.58411392 -0.93297638 7.75807159 -0.96083069 6.90699768 C-1.01283011 4.9386419 -1.01187837 2.96900669 -1 1 C-0.67 0.67 -0.34 0.34 0 0 Z " fill="#9FB0DB" transform="translate(642,147)"/>
<path d="M0 0 C2.0625 0.4375 2.0625 0.4375 4 1 C2.54462432 1.83848804 1.08559627 2.67063934 -0.375 3.5 C-1.59316406 4.19609375 -1.59316406 4.19609375 -2.8359375 4.90625 C-5 6 -5 6 -7 6 C-7 6.66 -7 7.32 -7 8 C9.17 8 25.34 8 42 8 C42 8.33 42 8.66 42 9 C40.76846191 9.02505615 39.53692383 9.0501123 38.26806641 9.07592773 C33.70952507 9.16992612 29.15113882 9.27016515 24.59277344 9.37231445 C22.61787538 9.41569203 20.64293913 9.457365 18.66796875 9.49731445 C15.8332161 9.55494873 12.99865622 9.6186627 10.1640625 9.68359375 C8.83430893 9.70866249 8.83430893 9.70866249 7.47769165 9.73423767 C3.10074845 9.71085211 3.10074845 9.71085211 -1 11 C-1 10.34 -1 9.68 -1 9 C-1.845625 9.350625 -2.69125 9.70125 -3.5625 10.0625 C-7.45017533 11.12277509 -10.08425639 10.78314872 -14 10 C-14 9.34 -14 8.68 -14 8 C-13.34 8 -12.68 8 -12 8 C-12 7.34 -12 6.68 -12 6 C-11.21753906 5.65066406 -10.43507813 5.30132812 -9.62890625 4.94140625 C-8.61699219 4.48636719 -7.60507813 4.03132813 -6.5625 3.5625 C-5.55316406 3.11003906 -4.54382813 2.65757813 -3.50390625 2.19140625 C-1.1139529 1.22551798 -1.1139529 1.22551798 0 0 Z " fill="#A2B5DB" transform="translate(111,108)"/>
<path d="M0 0 C0.33 0 0.66 0 1 0 C2.0399846 4.31572556 2.19845288 8.55249425 2.28125 12.96875 C2.30886414 14.1056427 2.30886414 14.1056427 2.33703613 15.26550293 C2.4152568 18.4914827 2.48327463 21.71765905 2.55224609 24.94384766 C2.60421773 27.30641155 2.66136844 29.6688123 2.71875 32.03125 C2.73232544 32.75534058 2.74590088 33.47943115 2.7598877 34.22546387 C2.85062363 37.93907799 3.26132333 41.36845934 4 45 C3 46 3 46 0.05859375 46.09765625 C-1.13636719 46.08605469 -2.33132813 46.07445312 -3.5625 46.0625 C-5.35880859 46.04896484 -5.35880859 46.04896484 -7.19140625 46.03515625 C-8.11824219 46.02355469 -9.04507813 46.01195312 -10 46 C-10 45.67 -10 45.34 -10 45 C-9.28972656 44.95101562 -8.57945312 44.90203125 -7.84765625 44.8515625 C-6.92855469 44.77679688 -6.00945313 44.70203125 -5.0625 44.625 C-4.14597656 44.55539063 -3.22945312 44.48578125 -2.28515625 44.4140625 C-1.53105469 44.27742188 -0.77695312 44.14078125 0 44 C1.43665761 41.12668478 0.52808747 39.16126901 0 36 C-0.08059165 33.17045326 -0.11695324 30.36741702 -0.09765625 27.5390625 C-0.0962413 26.74849457 -0.09482635 25.95792664 -0.09336853 25.1434021 C-0.08780504 22.63722834 -0.07525944 20.13114642 -0.0625 17.625 C-0.05748028 15.91797005 -0.0529182 14.21093868 -0.04882812 12.50390625 C-0.03784759 8.33590252 -0.02060839 4.16796679 0 0 Z " fill="#A6B3D6" transform="translate(615,143)"/>
<path d="M0 0 C0 0.99 0 1.98 0 3 C-1 4 -2 5 -3 6 C-3.33 6.86625 -3.66 7.7325 -4 8.625 C-4.33 9.40875 -4.66 10.1925 -5 11 C-5.99 11.33 -6.98 11.66 -8 12 C-8 12.66 -8 13.32 -8 14 C-5.29816945 15.35091528 -2.88191794 15.33858058 0.125 15.5625 C1.76855469 15.68818359 1.76855469 15.68818359 3.4453125 15.81640625 C4.28835938 15.87699219 5.13140625 15.93757812 6 16 C6.66 14.35 7.32 12.7 8 11 C8.66 11.66 9.32 12.32 10 13 C9.34 14.32 8.68 15.64 8 17 C2.72 17 -2.56 17 -8 17 C-10 13 -10 13 -9.0625 9.625 C-7.04197246 5.37270794 -3.7081148 2.77346669 0 0 Z " fill="#A4B3DB" transform="translate(443,131)"/>
<path d="M0 0 C-0.16298584 0.64348389 -0.32597168 1.28696777 -0.49389648 1.94995117 C-1.15352348 5.92521409 -1.12343039 9.77883321 -1.09765625 13.80078125 C-1.0962413 14.63715622 -1.09482635 15.47353119 -1.09336853 16.33525085 C-1.08779184 18.994371 -1.07524365 21.6534055 -1.0625 24.3125 C-1.05748199 26.12044149 -1.05291961 27.9283843 -1.04882812 29.73632812 C-1.03783004 34.15758484 -1.0205815 38.57877793 -1 43 C-1.66 43 -2.32 43 -3 43 C-3 43.66 -3 44.32 -3 45 C-4.32 44.34 -5.64 43.68 -7 43 C-5.515 42.505 -5.515 42.505 -4 42 C-3.67 29.13 -3.34 16.26 -3 3 C-4.65 2.67 -6.3 2.34 -8 2 C-4.91190305 0.23537317 -3.76687864 0 0 0 Z " fill="#A3B1D5" transform="translate(94,137)"/>
<path d="M0 0 C0.33 0 0.66 0 1 0 C1.02527062 6.39037231 1.04283317 12.78073183 1.05493164 19.17114258 C1.05997308 21.34692873 1.06680607 23.52271147 1.07543945 25.69848633 C1.08751338 28.81853067 1.09323005 31.93853038 1.09765625 35.05859375 C1.10281754 36.03775253 1.10797882 37.01691132 1.11329651 38.02574158 C1.11340981 39.37702904 1.11340981 39.37702904 1.11352539 40.75561523 C1.115746 41.55281479 1.11796661 42.35001434 1.12025452 43.17137146 C1 45 1 45 0 46 C-2.86267567 46.07325168 -5.700719 46.09238205 -8.5625 46.0625 C-9.36880859 46.05798828 -10.17511719 46.05347656 -11.00585938 46.04882812 C-13.00393756 46.03700518 -15.00197783 46.01906914 -17 46 C-17 45.67 -17 45.34 -17 45 C-16.09636719 44.93941406 -15.19273437 44.87882812 -14.26171875 44.81640625 C-13.08222656 44.73261719 -11.90273437 44.64882812 -10.6875 44.5625 C-9.51574219 44.48128906 -8.34398437 44.40007812 -7.13671875 44.31640625 C-3.97409042 44.1132629 -3.97409042 44.1132629 -1 43 C-0.67 28.81 -0.34 14.62 0 0 Z " fill="#A4B5D4" transform="translate(252,143)"/>
<path d="M0 0 C0.33 0 0.66 0 1 0 C2.25406138 5.78645644 2.11186913 11.48868116 2.0625 17.375 C2.05798828 18.39722656 2.05347656 19.41945312 2.04882812 20.47265625 C2.037103 22.98183194 2.02069176 25.4908849 2 28 C1.34 28 0.68 28 0 28 C-0.33 29.32 -0.66 30.64 -1 32 C-1 31.34 -1 30.68 -1 30 C-1.66 30 -2.32 30 -3 30 C-3 28.68 -3 27.36 -3 26 C-2.01 26 -1.02 26 0 26 C0 17.42 0 8.84 0 0 Z " fill="#A0B2DF" transform="translate(126,154)"/>
<path d="M0 0 C0.86931152 0.01047363 1.73862305 0.02094727 2.63427734 0.03173828 C3.57529297 0.03818359 4.51630859 0.04462891 5.48583984 0.05126953 C6.47068359 0.06802734 7.45552734 0.08478516 8.47021484 0.10205078 C9.46279297 0.11107422 10.45537109 0.12009766 11.47802734 0.12939453 C13.93399618 0.15300962 16.38948653 0.18594279 18.84521484 0.22705078 C19.17521484 0.88705078 19.50521484 1.54705078 19.84521484 2.22705078 C18.67603516 2.27603516 17.50685547 2.32501953 16.30224609 2.37548828 C14.7540468 2.45055249 13.20587083 2.52609873 11.65771484 2.60205078 C10.88878906 2.63298828 10.11986328 2.66392578 9.32763672 2.69580078 C4.04875492 2.96767452 -0.25073441 3.32300004 -4.15478516 7.22705078 C-4.27978516 4.85205078 -4.27978516 4.85205078 -4.15478516 2.22705078 C-2.15478516 0.22705078 -2.15478516 0.22705078 0 0 Z " fill="#A6B9D7" transform="translate(89.15478515625,130.77294921875)"/>
<path d="M0 0 C0.33 0 0.66 0 1 0 C1.33 11.55 1.66 23.1 2 35 C1.67 33.68 1.34 32.36 1 31 C0.01 31.33 -0.98 31.66 -2 32 C-2.98120464 28.94736336 -2.98120464 27.05263664 -2 24 C-1.34 24 -0.68 24 0 24 C-0.03552979 23.34402832 -0.07105957 22.68805664 -0.10766602 22.01220703 C-0.26493583 19.05007338 -0.4138205 16.08757671 -0.5625 13.125 C-0.61857422 12.09246094 -0.67464844 11.05992187 -0.73242188 9.99609375 C-0.78076172 9.00996094 -0.82910156 8.02382812 -0.87890625 7.0078125 C-0.94960327 5.64100342 -0.94960327 5.64100342 -1.02172852 4.24658203 C-1 2 -1 2 0 0 Z " fill="#A1B8D8" transform="translate(485,153)"/>
<path d="M0 0 C1.98 0.66 3.96 1.32 6 2 C0.94106919 6.01225547 -3.21089666 6.15649801 -9.5 6.125 C-10.27214844 6.12886719 -11.04429687 6.13273438 -11.83984375 6.13671875 C-15.14503737 6.13099051 -17.84377498 6.05207501 -21 5 C-21 4.34 -21 3.68 -21 3 C-20.01 2.67 -19.02 2.34 -18 2 C-17.34 2.66 -16.68 3.32 -16 4 C-13.50265823 4.32019713 -13.50265823 4.32019713 -10.6875 4.25 C-9.74261719 4.25515625 -8.79773438 4.2603125 -7.82421875 4.265625 C-4.87390511 3.98814045 -2.68080856 3.23053508 0 2 C0 1.34 0 0.68 0 0 Z " fill="#A1B6DD" transform="translate(350,184)"/>
<path d="M0 0 C3 1 3 1 4.6875 3.6875 C6.95415478 9.38992625 6.600542 15.98678073 6 22 C5.34 22.66 4.68 23.32 4 24 C3.09156856 20.59338209 2.98422201 17.49641708 3.0625 14 C3.10813811 10.15498942 2.74320144 7.48640287 1 4 C0.64141484 2.67323492 0.2981424 1.34164079 0 0 Z " fill="#A4B3D5" transform="translate(551,151)"/>
<path d="M0 0 C5.38707103 -0.47885076 5.38707103 -0.47885076 8 1.5625 C9.47195602 5.15039279 8.29219486 7.4634667 7 11 C4.0444623 8.24829249 1.88436685 5.58029701 0 2 C0 1.34 0 0.68 0 0 Z " fill="#A4BBEB" transform="translate(277,176)"/>
<path d="M0 0 C0.99 0.33 1.98 0.66 3 1 C3.39180108 2.57925975 3.76280736 4.16368794 4.125 5.75 C4.33382813 6.63171875 4.54265625 7.5134375 4.7578125 8.421875 C5.03088304 11.32875493 4.53508028 12.56661348 3 15 C1.02 15 -0.96 15 -3 15 C-2.360625 14.525625 -1.72125 14.05125 -1.0625 13.5625 C1.84850272 9.94579965 1.80649782 6.52795106 2 2 C1.01 1.67 0.02 1.34 -1 1 C-0.67 0.67 -0.34 0.34 0 0 Z " fill="#A5B5D7" transform="translate(465,161)"/>
<path d="M0 0 C0.94875 0.04125 1.8975 0.0825 2.875 0.125 C2.875 0.455 2.875 0.785 2.875 1.125 C1.225 1.455 -0.425 1.785 -2.125 2.125 C-2.455 3.115 -2.785 4.105 -3.125 5.125 C-1.805 5.455 -0.485 5.785 0.875 6.125 C1.5 9 1.5 9 1.875 12.125 C1.215 12.785 0.555 13.445 -0.125 14.125 C-0.125 12.475 -0.125 10.825 -0.125 9.125 C-0.764375 8.980625 -1.40375 8.83625 -2.0625 8.6875 C-4.125 8.125 -4.125 8.125 -5.125 7.125 C-5.3125 4.6875 -5.3125 4.6875 -5.125 2.125 C-3.125 0.125 -3.125 0.125 0 0 Z " fill="#A5B7D7" transform="translate(162.125,130.875)"/>
<path d="M0 0 C0.33 0 0.66 0 1 0 C1.10883596 2.37625177 1.18766696 4.74743976 1.25 7.125 C1.28351562 7.79015625 1.31703125 8.4553125 1.3515625 9.140625 C1.45212173 14.26914595 0.22723319 17.0675566 -3 21 C-3.66 21.33 -4.32 21.66 -5 22 C-4.69191406 21.50757813 -4.38382813 21.01515625 -4.06640625 20.5078125 C-2.59993471 17.05918713 -2.31726487 13.56697497 -1.9375 9.875 C-1.11993243 2.23986486 -1.11993243 2.23986486 0 0 Z " fill="#A3B4D3" transform="translate(554,123)"/>
<path d="M0 0 C3.3 0 6.6 0 10 0 C10.33 0.66 10.66 1.32 11 2 C6.92276266 3.95031692 3.68307578 4.21581971 -0.8125 4.125 C-1.97394531 4.10695312 -3.13539063 4.08890625 -4.33203125 4.0703125 C-5.21246094 4.04710937 -6.09289062 4.02390625 -7 4 C-7 3.67 -7 3.34 -7 3 C-4.69 3 -2.38 3 0 3 C0 2.01 0 1.02 0 0 Z " fill="#A3B8DB" transform="translate(585,186)"/>
<path d="M0 0 C1.72251754 4.0845326 0.07280563 7.36973696 -1.4375 11.25 C-1.68048828 11.8996875 -1.92347656 12.549375 -2.17382812 13.21875 C-2.77285994 14.81616817 -3.38514321 16.40860594 -4 18 C-5.32 17.67 -6.64 17.34 -8 17 C-7.505 15.515 -7.505 15.515 -7 14 C-6.34 14 -5.68 14 -5 14 C-4.8659375 13.42507812 -4.731875 12.85015625 -4.59375 12.2578125 C-4.01660512 10.06314316 -3.30612504 7.99510884 -2.5 5.875 C-2.2421875 5.19179687 -1.984375 4.50859375 -1.71875 3.8046875 C-1 2 -1 2 0 0 Z " fill="#A8B9DF" transform="translate(427,134)"/>
<path d="M0 0 C5.61 0 11.22 0 17 0 C17.66 1.32 18.32 2.64 19 4 C18.01 3.67 17.02 3.34 16 3 C13.26710707 2.77202438 10.54957796 2.58331813 7.8125 2.4375 C7.06291016 2.39431641 6.31332031 2.35113281 5.54101562 2.30664062 C3.69421625 2.20077315 1.84713166 2.0999024 0 2 C0 1.34 0 0.68 0 0 Z " fill="#A0B1D8" transform="translate(236,108)"/>
<path d="M0 0 C0.33 0 0.66 0 1 0 C1.33 3.63 1.66 7.26 2 11 C4.9982175 11.74955438 7.96936513 12.41070989 11 13 C11 13.33 11 13.66 11 14 C9.37536158 14.05395478 7.75021459 14.09277195 6.125 14.125 C5.22007813 14.14820313 4.31515625 14.17140625 3.3828125 14.1953125 C1 14 1 14 -1 12 C-1.23046875 9.43359375 -1.23046875 9.43359375 -1.1875 6.4375 C-1.18105469 5.44621094 -1.17460938 4.45492187 -1.16796875 3.43359375 C-1 1 -1 1 0 0 Z " fill="#A1B0D1" transform="translate(74,193)"/>
<path d="M0 0 C3 1 3 1 4.41015625 2.546875 C6.50112266 4.45802857 7.64811379 4.34407711 10.4375 4.25 C11.19933594 4.23453125 11.96117187 4.2190625 12.74609375 4.203125 C14.92611261 4.00665883 16.89683604 3.59405998 19 3 C17.8046875 4.96875 17.8046875 4.96875 16 7 C11.25328328 8.09415843 7.10694079 7.65512823 2.9375 5.1875 C1 3 1 3 0 0 Z " fill="#A5B5D4" transform="translate(330,170)"/>
<path d="M0 0 C6.20454545 -0.47727273 6.20454545 -0.47727273 9.5 1.5 C11.75991516 5.26652526 10.848685 7.75657498 10 12 C9.34 12 8.68 12 8 12 C7.79375 10.741875 7.5875 9.48375 7.375 8.1875 C6.49193978 4.51890422 6.27006117 4.17283915 2.875 2 C1.92625 1.67 0.9775 1.34 0 1 C0 0.67 0 0.34 0 0 Z " fill="#ABBBE5" transform="translate(530,154)"/>
<path d="M0 0 C2.64 0 5.28 0 8 0 C8.33 0.99 8.66 1.98 9 3 C10.65 3.33 12.3 3.66 14 4 C14 4.33 14 4.66 14 5 C12.741875 5.04125 11.48375 5.0825 10.1875 5.125 C9.47980469 5.14820313 8.77210938 5.17140625 8.04296875 5.1953125 C6 5 6 5 3 3 C0.84725052 3.30840599 0.84725052 3.30840599 -1 4 C-0.67 2.68 -0.34 1.36 0 0 Z " fill="#A3B4DB" transform="translate(464,184)"/>
<path d="M0 0 C0.69738281 0.00451172 1.39476562 0.00902344 2.11328125 0.01367188 C3.82555803 0.0253998 5.53779033 0.04333347 7.25 0.0625 C6.92 0.7225 6.59 1.3825 6.25 2.0625 C0.31 2.3925 -5.63 2.7225 -11.75 3.0625 C-11.75 2.4025 -11.75 1.7425 -11.75 1.0625 C-7.88276369 -0.20332219 -4.01848738 -0.0493765 0 0 Z " fill="#A7B6D8" transform="translate(589.75,150.9375)"/>
<path d="M0 0 C2.29141286 -0.05384521 4.58318188 -0.09272087 6.875 -0.125 C8.78925781 -0.15980469 8.78925781 -0.15980469 10.7421875 -0.1953125 C14 0 14 0 16 2 C15 3 15 3 11.62109375 3.09765625 C10.22652923 3.09098369 8.83198257 3.07902532 7.4375 3.0625 C6.72658203 3.05798828 6.01566406 3.05347656 5.28320312 3.04882812 C3.52209987 3.03700864 1.76103964 3.01907263 0 3 C0 2.01 0 1.02 0 0 Z " fill="#A4B7D9" transform="translate(730,186)"/>
<path d="M0 0 C0.33 0.66 0.66 1.32 1 2 C0.2884375 2.7734375 0.2884375 2.7734375 -0.4375 3.5625 C-2.42809407 6.66782675 -2.65060818 9.36632504 -3 13 C-4.32 13 -5.64 13 -7 13 C-6.36664937 7.61651963 -3.79089107 3.79089107 0 0 Z " fill="#AEC1E2" transform="translate(320,134)"/>
<path d="M0 0 C0.5625 1.9375 0.5625 1.9375 1 4 C0 5 0 5 -2.94140625 5.09765625 C-4.73384766 5.08025391 -4.73384766 5.08025391 -6.5625 5.0625 C-8.35880859 5.04896484 -8.35880859 5.04896484 -10.19140625 5.03515625 C-11.11824219 5.02355469 -12.04507813 5.01195312 -13 5 C-10.2173829 2.2173829 -7.89667775 2.59069336 -4.09375 2.34375 C-1.78487741 2.17368193 -1.78487741 2.17368193 0 0 Z " fill="#A5B5D7" transform="translate(706,184)"/>
<path d="M0 0 C1.60725635 3.21451269 1.05748185 6.43612536 1 10 C0.01 10.495 0.01 10.495 -1 11 C-1.12375 9.39125 -1.12375 9.39125 -1.25 7.75 C-2.05476902 3.7261549 -2.87729874 2.51830747 -6 0 C-3 -1 -3 -1 0 0 Z " fill="#A7B6DA" transform="translate(599,141)"/>
<path d="M0 0 C2.75 -0.36328125 2.75 -0.36328125 6 -0.3125 C7.60875 -0.30669922 7.60875 -0.30669922 9.25 -0.30078125 C12 0 12 0 14 2 C10.57767028 3.14077657 7.91326783 3.09815117 4.3125 3.0625 C2.54326172 3.04896484 2.54326172 3.04896484 0.73828125 3.03515625 C-0.16535156 3.02355469 -1.06898438 3.01195312 -2 3 C-1.34 2.01 -0.68 1.02 0 0 Z " fill="#96A4E4" transform="translate(725,128)"/>
<path d="M0 0 C0.66 0 1.32 0 2 0 C2.144375 1.216875 2.28875 2.43375 2.4375 3.6875 C2.82780953 6.82670377 3.32351856 9.9075134 4 13 C3.01 13.495 3.01 13.495 2 14 C-0.3992233 9.35150485 -0.19957409 5.08913926 0 0 Z " fill="#A6B4D8" transform="translate(563,167)"/>
<path d="M0 0 C0.33 0.99 0.66 1.98 1 3 C0.360625 3.433125 -0.27875 3.86625 -0.9375 4.3125 C-3.26746003 5.91239177 -3.26746003 5.91239177 -4 9 C-5.62332967 10.38576923 -7.28724465 11.72641268 -9 13 C-9.66 12.67 -10.32 12.34 -11 12 C-7.37 8.04 -3.74 4.08 0 0 Z " fill="#A3AED5" transform="translate(722,131)"/>
<path d="M0 0 C0.66 0.66 1.32 1.32 2 2 C1.42000018 6.63999858 -1.82351857 8.82351857 -5 12 C-5.125 9.625 -5.125 9.625 -5 7 C-4.34 6.34 -3.68 5.68 -3 5 C-2.01 5 -1.02 5 0 5 C0 3.35 0 1.7 0 0 Z " fill="#A2B2D2" transform="translate(162,175)"/>
<path d="M0 0 C0.99 0.33 1.98 0.66 3 1 C2.01 1.66 1.02 2.32 0 3 C-0.66 4.32 -1.32 5.64 -2 7 C-4.97 7 -7.94 7 -11 7 C-11 6.67 -11 6.34 -11 6 C-10.113125 5.938125 -9.22625 5.87625 -8.3125 5.8125 C-4.25918008 4.81828945 -2.70168251 3.09898876 0 0 Z " fill="#A4B1D2" transform="translate(584,141)"/>
<path d="M0 0 C0.99 0.33 1.98 0.66 3 1 C2.69381595 4.67420866 2.24228216 5.78135513 -0.5625 8.3125 C-1.366875 8.869375 -2.17125 9.42625 -3 10 C-3 9.01 -3 8.02 -3 7 C-2.34 7 -1.68 7 -1 7 C-0.67 4.69 -0.34 2.38 0 0 Z " fill="#A0B0D3" transform="translate(741,128)"/>
<path d="M0 0 C0.66 0 1.32 0 2 0 C2.33 1.65 2.66 3.3 3 5 C3.66 5 4.32 5 5 5 C4.34 6.65 3.68 8.3 3 10 C1.5 8.9375 1.5 8.9375 0 7 C-0.1875 3.3125 -0.1875 3.3125 0 0 Z " fill="#AFC3EB" transform="translate(315,171)"/>
<path d="M0 0 C0.33 0.99 0.66 1.98 1 3 C-0.40445835 5.2636564 -2.1967913 7.0208685 -4 9 C-4.99 8.67 -5.98 8.34 -7 8 C-6.01 7.34 -5.02 6.68 -4 6 C-4.33 5.34 -4.66 4.68 -5 4 C-3 2 -3 2 0 0 Z " fill="#A1B1DC" transform="translate(365,175)"/>
<path d="M0 0 C2.87529818 1.28892677 5.05008298 2.49296383 7 5 C7.6875 7.6875 7.6875 7.6875 8 10 C7.34 10 6.68 10 6 10 C4.4921875 8.06640625 4.4921875 8.06640625 2.875 5.5625 C2.33617187 4.73878906 1.79734375 3.91507813 1.2421875 3.06640625 C0 1 0 1 0 0 Z " fill="#A4B4D6" transform="translate(266,160)"/>
<path d="M0 0 C0.66 0.33 1.32 0.66 2 1 C1.31292969 1.40992187 0.62585938 1.81984375 -0.08203125 2.2421875 C-1.43361328 3.05042969 -1.43361328 3.05042969 -2.8125 3.875 C-4.15248047 4.67550781 -4.15248047 4.67550781 -5.51953125 5.4921875 C-7.37294724 6.61883092 -9.19529917 7.79686611 -11 9 C-11.66 8.34 -12.32 7.68 -13 7 C-10.88002166 5.80266012 -8.75486324 4.61701287 -6.625 3.4375 C-6.02171875 3.09525391 -5.4184375 2.75300781 -4.796875 2.40039062 C-3.23021759 1.53872905 -1.61709138 0.76281817 0 0 Z " fill="#A4B5D9" transform="translate(122,90)"/>
<path d="M0 0 C3.465 1.485 3.465 1.485 7 3 C7 3.66 7 4.32 7 5 C4.69 5.33 2.38 5.66 0 6 C0 4.02 0 2.04 0 0 Z " fill="#A2B8E1" transform="translate(85,181)"/>
<path d="M0 0 C3.08089673 2.77280706 4.68775452 5.06326356 6 9 C4.02 8.34 2.04 7.68 0 7 C0 4.69 0 2.38 0 0 Z " fill="#A8B8D7" transform="translate(736,172)"/>
<path d="M0 0 C0.556875 0.185625 1.11375 0.37125 1.6875 0.5625 C4.399133 1.07551165 6.34371039 0.6640724 9 0 C9 0.99 9 1.98 9 3 C6.36 3.66 3.72 4.32 1 5 C0.67 3.35 0.34 1.7 0 0 Z " fill="#AFC1EC" transform="translate(108,105)"/>
<path d="M0 0 C0.33 0.66 0.66 1.32 1 2 C1.66 2.33 2.32 2.66 3 3 C-0.42232972 4.14077657 -3.08673217 4.09815117 -6.6875 4.0625 C-8.45673828 4.04896484 -8.45673828 4.04896484 -10.26171875 4.03515625 C-11.16535156 4.02355469 -12.06898438 4.01195312 -13 4 C-13 3.67 -13 3.34 -13 3 C-12.14535156 2.86722656 -11.29070312 2.73445312 -10.41015625 2.59765625 C-9.30542969 2.42105469 -8.20070313 2.24445313 -7.0625 2.0625 C-5.96035156 1.88847656 -4.85820312 1.71445313 -3.72265625 1.53515625 C-1.09573071 1.28154864 -1.09573071 1.28154864 0 0 Z " fill="#9FB4D8" transform="translate(460,186)"/>
<path d="M0 0 C1.32 0.33 2.64 0.66 4 1 C4 2.32 4 3.64 4 5 C4.66 5 5.32 5 6 5 C6.33 5.99 6.66 6.98 7 8 C5.1875 7.8125 5.1875 7.8125 3 7 C0 2.82142857 0 2.82142857 0 0 Z " fill="#A3B1D7" transform="translate(722,181)"/>
<path d="M0 0 C0.66 0 1.32 0 2 0 C5.42857143 7.28571429 5.42857143 7.28571429 5 12 C2.65085508 9.65085508 2.26859643 8.04320554 1.375 4.875 C1.11460937 3.96492187 0.85421875 3.05484375 0.5859375 2.1171875 C0.39257812 1.41851562 0.19921875 0.71984375 0 0 Z " fill="#A5B5DD" transform="translate(372,134)"/>
<path d="M0 0 C-0.33 1.65 -0.66 3.3 -1 5 C-3.31 4.01 -5.62 3.02 -8 2 C-4.91190305 0.23537317 -3.76687864 0 0 0 Z " fill="#A2B3DF" transform="translate(94,137)"/>
<path d="M0 0 C0.33 0.99 0.66 1.98 1 3 C-1.475 4.485 -1.475 4.485 -4 6 C-4.99 5.34 -5.98 4.68 -7 4 C-4.69 2.68 -2.38 1.36 0 0 Z " fill="#AFBAE3" transform="translate(652,128)"/>
<path d="M0 0 C3.15133488 1.83827868 6.11964908 3.75972706 9 6 C6.69 6 4.38 6 2 6 C1.34 4.02 0.68 2.04 0 0 Z " fill="#A3B7DC" transform="translate(390,183)"/>
<path d="M0 0 C0.99 0.33 1.98 0.66 3 1 C4.62323754 4.75907641 5.23994929 7.92086213 5 12 C3.20931427 9.3139714 2.33944209 7.3373411 1.375 4.3125 C1.11460937 3.50425781 0.85421875 2.69601563 0.5859375 1.86328125 C0.39257812 1.24839844 0.19921875 0.63351563 0 0 Z " fill="#A7B6D2" transform="translate(385,171)"/>
<path d="M0 0 C1.32 0.33 2.64 0.66 4 1 C3.67 3.97 3.34 6.94 3 10 C2.67 10 2.34 10 2 10 C2 7.69 2 5.38 2 3 C0.68 2.67 -0.64 2.34 -2 2 C-1.34 1.34 -0.68 0.68 0 0 Z " fill="#A0B6DD" transform="translate(124,137)"/>
<path d="M0 0 C0 0.66 0 1.32 0 2 C-0.99 2 -1.98 2 -3 2 C-3.33 3.32 -3.66 4.64 -4 6 C-5.32 6.33 -6.64 6.66 -8 7 C-6.47663111 3.31852519 -4.31953005 0 0 0 Z " fill="#AAB8D6" transform="translate(576,131)"/>
<path d="M0 0 C-0.33 0.99 -0.66 1.98 -1 3 C-1.66 3 -2.32 3 -3 3 C-3.66 3.66 -4.32 4.32 -5 5 C-7.625 5.125 -7.625 5.125 -10 5 C-6.99385784 1.69324363 -4.54252119 0 0 0 Z " fill="#ABC0EF" transform="translate(110,100)"/>
<path d="M0 0 C0.33 1.32 0.66 2.64 1 4 C1.66 4 2.32 4 3 4 C3.33 4.99 3.66 5.98 4 7 C2.35 7 0.7 7 -1 7 C-1.04254356 5.00045254 -1.04080783 2.99958364 -1 1 C-0.67 0.67 -0.34 0.34 0 0 Z " fill="#B5C6E6" transform="translate(122,180)"/>
<path d="M0 0 C1.32 0.33 2.64 0.66 4 1 C4.66 3.97 5.32 6.94 6 10 C3.25722422 6.80009492 1.3697164 3.99500618 0 0 Z " fill="#A2B2D2" transform="translate(277,176)"/>
<path d="M0 0 C3.77528304 1.25842768 4.10667045 2.62493429 6 6 C6.66 6.66 7.32 7.32 8 8 C6.68 8 5.36 8 4 8 C2.68 5.36 1.36 2.72 0 0 Z " fill="#9CB4DD" transform="translate(278,150)"/>
<path d="M0 0 C1.12377697 3.30435084 0.89554742 5.0506862 -0.4375 8.25 C-0.72496094 8.95640625 -1.01242187 9.6628125 -1.30859375 10.390625 C-1.53675781 10.92171875 -1.76492188 11.4528125 -2 12 C-3.41128754 7.40834617 -2.11300128 4.22600255 0 0 Z " fill="#A2AFCF" transform="translate(427,134)"/>
<path d="M0 0 C2 2 2 2 2 6 C0.68 6 -0.64 6 -2 6 C-2.33 5.01 -2.66 4.02 -3 3 C-2.01 2.01 -1.02 1.02 0 0 Z " fill="#9EB1DF" transform="translate(254,136)"/>
<path d="M0 0 C0 0.66 0 1.32 0 2 C0.66 2.33 1.32 2.66 2 3 C1.67 3.66 1.34 4.32 1 5 C-0.65 5 -2.3 5 -4 5 C-4 3.68 -4 2.36 -4 1 C-2 0 -2 0 0 0 Z " fill="#A3B3DE" transform="translate(577,153)"/>
<path d="M0 0 C4.75 0.75 4.75 0.75 7 3 C6.34 3.66 5.68 4.32 5 5 C2.875 4.625 2.875 4.625 1 4 C0.67 2.68 0.34 1.36 0 0 Z " fill="#A5B4DE" transform="translate(600,129)"/>
<path d="M0 0 C4.21912747 0.4794463 6.79663178 1.16625119 10 4 C6.53058454 3.54177532 3.32604951 3.10868317 0 2 C0 1.34 0 0.68 0 0 Z " fill="#9EA9E0" transform="translate(466,128)"/>
<path d="M0 0 C0.99 0 1.98 0 3 0 C2.25 2.4375 2.25 2.4375 1 5 C-1.125 5.8125 -1.125 5.8125 -3 6 C-1.125 1.125 -1.125 1.125 0 0 Z " fill="#A8B4DE" transform="translate(436,159)"/>
<path d="M0 0 C0.66 0.33 1.32 0.66 2 1 C1.67 2.65 1.34 4.3 1 6 C-0.65 5.67 -2.3 5.34 -4 5 C-2.68 3.35 -1.36 1.7 0 0 Z " fill="#A2B8DB" transform="translate(710,145)"/>
<path d="M0 0 C3.08089673 2.77280706 4.68775452 5.06326356 6 9 C4 7.625 4 7.625 2 6 C2 5.34 2 4.68 2 4 C1.01 3.67 0.02 3.34 -1 3 C-0.67 2.01 -0.34 1.02 0 0 Z " fill="#A1B0D9" transform="translate(266,130)"/>
<path d="M0 0 C2.31 0 4.62 0 7 0 C7.33 1.98 7.66 3.96 8 6 C7.236875 5.38125 6.47375 4.7625 5.6875 4.125 C3.00374191 1.94402948 3.00374191 1.94402948 0 0 Z " fill="#A7B7D1" transform="translate(530,154)"/>
<path d="M0 0 C1.485 0.99 1.485 0.99 3 2 C3.1875 5.125 3.1875 5.125 3 8 C2.34 8 1.68 8 1 8 C0.40267181 5.23735711 0 2.83967231 0 0 Z " fill="#AEC1EF" transform="translate(675,139)"/>
<path d="M0 0 C1.60031344 3.20062687 0.03173691 5.72271806 -1 9 C-1.99 8.67 -2.98 8.34 -4 8 C-2.68 5.36 -1.36 2.72 0 0 Z " fill="#A7B5D3" transform="translate(537,132)"/>
<path d="M0 0 C0.33 0.66 0.66 1.32 1 2 C-0.2739589 4.03833424 -1.61061923 6.03852126 -3 8 C-3.66 8 -4.32 8 -5 8 C-3.8141763 4.62496331 -2.72426311 2.35277269 0 0 Z " fill="#ABB7D5" transform="translate(320,134)"/>
<path d="M0 0 C0 0.33 0 0.66 0 1 C-1.11375 1.309375 -2.2275 1.61875 -3.375 1.9375 C-6.7945155 2.82326483 -6.7945155 2.82326483 -9 4 C-9.99 3.34 -10.98 2.68 -12 2 C-7.82262526 0.40861915 -4.46839215 -0.21278058 0 0 Z " fill="#A3B2D6" transform="translate(588,128)"/>
</svg>
