<?xml version="1.0" encoding="UTF-8"?>
<svg version="1.1" xmlns="http://www.w3.org/2000/svg" width="499" height="499">
<path d="M0 0 C1.45267115 0.81283679 2.89596764 1.64254461 4.33203125 2.484375 C7.61251603 4.38360303 10.96269851 6.14127381 14.31640625 7.90625 C18.92606698 10.34423818 23.46204476 12.85827952 27.94140625 15.53125 C33.27341002 18.68854763 38.74434036 21.47623616 44.31030273 24.19140625 C47.94891988 25.97185937 51.48660494 27.85029423 54.99194336 29.88598633 C57.46621262 31.29440728 59.97111914 32.63945184 62.48046875 33.984375 C91.52409524 49.55143899 91.52409524 49.55143899 95.00390625 53.03125 C95.21088059 55.50902849 95.32817075 57.92482259 95.37890625 60.40625 C95.41628906 61.09203125 95.45367187 61.7778125 95.4921875 62.484375 C95.52734375 64.4921875 95.52734375 64.4921875 95.00390625 68.03125 C90.97017476 71.40436852 86.99274014 71.45721823 81.95739746 71.41220093 C81.15219335 71.4168809 80.34698924 71.42156087 79.51738501 71.42638266 C76.82196884 71.43833917 74.12706048 71.42887293 71.43164062 71.41943359 C69.49815067 71.423499 67.56466304 71.42884071 65.63117981 71.43536377 C60.38124972 71.44904678 55.13149639 71.44373461 49.88156319 71.43422651 C44.38925828 71.42663505 38.89696858 71.4336741 33.40466309 71.43838501 C24.1810433 71.44384405 14.95749557 71.43664702 5.73388672 71.42236328 C-4.93221196 71.40603651 -15.5981386 71.41132491 -26.26423311 71.4278425 C-35.41934066 71.4414531 -44.57439639 71.4433791 -53.72951078 71.43552649 C-59.19859354 71.43084765 -64.66759541 71.43023097 -70.13667297 71.44013596 C-75.2781766 71.44879711 -80.41945826 71.44279917 -85.56093788 71.42545319 C-87.44875533 71.42148381 -89.33659143 71.42263008 -91.22440147 71.42924118 C-93.79971548 71.43742892 -96.37431648 71.42716879 -98.94958496 71.41220093 C-99.69812697 71.41889309 -100.44666898 71.42558526 -101.21789408 71.43248022 C-105.64129841 71.38255188 -108.48009274 70.76469642 -111.99609375 68.03125 C-113.98652015 64.05039721 -113.51115286 59.3601992 -112.99609375 55.03125 C-110.05483134 49.73697766 -106.3144845 47.93008395 -100.921875 45.4375 C-97.59619254 43.83904114 -94.42799829 42.018087 -91.24609375 40.15625 C-86.75421877 37.54827899 -82.23314657 35.11618038 -77.55859375 32.84375 C-69.91485969 29.09563069 -62.55008512 24.88301887 -55.16625977 20.6496582 C-50.43606528 17.94396913 -45.70087093 15.3361448 -40.80615234 12.94116211 C-37.88080821 11.47059864 -35.07198281 9.80800206 -32.24609375 8.15625 C-9.87108106 -4.79066165 -9.87108106 -4.79066165 0 0 Z M-14.37109375 20.65625 C-15.94651007 21.73348003 -17.48947749 22.85972597 -18.99609375 24.03125 C-20.52557801 24.98849618 -22.0677921 25.92565614 -23.62109375 26.84375 C-24.44867188 27.35035156 -25.27625 27.85695312 -26.12890625 28.37890625 C-29.51397128 30.32969986 -32.99026831 32.06181341 -36.49609375 33.78125 C-42.68229496 36.82474462 -48.77077184 40.01514463 -54.80859375 43.34375 C-55.57945312 43.76430664 -56.3503125 44.18486328 -57.14453125 44.61816406 C-57.86511719 45.01874023 -58.58570313 45.41931641 -59.328125 45.83203125 C-60.28295776 46.36050659 -60.28295776 46.36050659 -61.25708008 46.8996582 C-63.34425691 48.17239637 -63.34425691 48.17239637 -65.99609375 51.03125 C-28.04609375 51.03125 9.90390625 51.03125 49.00390625 51.03125 C45.20811831 47.99461965 42.49743086 46.12008913 38.25390625 44.09375 C32.48243243 41.27805525 26.89014699 38.25517462 21.31787109 35.06640625 C17.27748825 32.75580239 13.21842935 30.48317834 9.14306641 28.23486328 C6.99353834 27.02541642 4.88107841 25.76399562 2.765625 24.49609375 C-5.39778179 19.40102233 -5.39778179 19.40102233 -14.37109375 20.65625 Z " fill="#93A5D1" transform="translate(253.99609375,145.96875)"/>
<path d="M0 0 C1.22111517 -0.0083016 1.22111517 -0.0083016 2.46689934 -0.0167709 C5.19243184 -0.03037508 7.91704825 -0.01540977 10.64256287 -0.00050354 C12.59738046 -0.00428677 14.55219538 -0.00978685 16.50700378 -0.01687622 C21.81477209 -0.03084656 27.12221681 -0.01965028 32.42996716 -0.00316501 C37.98146147 0.01067571 43.53293681 0.0042266 49.08444214 0.0007019 C58.40644044 -0.00200076 67.72831003 0.01148107 77.05027771 0.03465271 C87.83341773 0.06127055 98.61634262 0.06300726 109.39950424 0.05126435 C119.76696375 0.04049236 130.13434531 0.04666859 140.50179863 0.06081963 C144.91680172 0.06658366 149.33174785 0.06649348 153.74675179 0.06175423 C158.94325599 0.05698855 164.13952402 0.06706921 169.33598328 0.08870888 C171.24517966 0.0942822 173.15439871 0.09473706 175.06359673 0.08975601 C177.66554565 0.08381796 180.26676888 0.09627954 182.86865234 0.11352539 C183.62788909 0.10751535 184.38712584 0.1015053 185.16936976 0.09531313 C188.3491083 0.13375707 190.54242603 0.31627716 193.33961391 1.89138699 C195.35985059 4.01532304 195.37357297 5.19620811 195.3669281 8.09886169 C195.36757263 8.98251404 195.36821716 9.86616638 195.36888123 10.77659607 C195.34890076 11.69634216 195.32892029 12.61608826 195.30833435 13.56370544 C195.31542419 14.48731873 195.32251404 15.41093201 195.32981873 16.36253357 C195.28148033 21.45293802 195.28148033 21.45293802 194.87083435 23.50120544 C191.13139362 25.99416593 188.23465848 25.78312969 183.90625 25.76190186 C182.67544745 25.76764018 182.67544745 25.76764018 181.41978019 25.77349442 C178.66064324 25.78384217 175.9017137 25.77982893 173.14256287 25.77586365 C171.16833808 25.78020914 169.19411498 25.78539174 167.21989441 25.79135132 C161.8501211 25.80477001 156.48041804 25.80531681 151.11063123 25.80278802 C146.63229043 25.80172026 142.15396396 25.80659664 137.67562622 25.81139344 C127.1129992 25.82249852 116.55040774 25.82292038 105.98777771 25.81687927 C95.0808615 25.8108373 84.17407423 25.82315392 73.26718003 25.84444934 C63.91171207 25.86204589 54.55628522 25.86806978 45.20080131 25.8648116 C39.60931167 25.86299551 34.01791399 25.86566729 28.42643929 25.87952614 C23.16924965 25.89206824 17.91226149 25.89019474 12.65507507 25.87711525 C10.7232958 25.87474202 8.79150251 25.87751071 6.8597393 25.88573837 C4.22705736 25.8961446 1.59505917 25.88815479 -1.03759766 25.87542725 C-2.19017198 25.88648867 -2.19017198 25.88648867 -3.36603063 25.89777356 C-6.57423052 25.86503847 -8.78330823 25.69744058 -11.60154819 24.09840679 C-14.4455243 21.12488587 -13.74418181 17.47152539 -13.69166565 13.56370544 C-13.71551331 12.7522406 -13.73936096 11.94077576 -13.76393127 11.10472107 C-13.76103088 9.92619568 -13.76103088 9.92619568 -13.7580719 8.72386169 C-13.75915955 7.65277161 -13.75915955 7.65277161 -13.76026917 6.56004333 C-11.80494921 0.18123747 -5.69737084 -0.0722891 0 0 Z " fill="#93A6D4" transform="translate(154.12916564941406,329.49879455566406)"/>
<path d="M0 0 C1.18154663 -0.00430527 1.18154663 -0.00430527 2.38696289 -0.00869751 C4.05127685 -0.01073772 5.71561481 -0.00521082 7.37988281 0.00732422 C9.92827947 0.02337941 12.47509021 0.00747506 15.0234375 -0.01171875 C16.6406285 -0.00973631 18.25781852 -0.00589261 19.875 0 C20.63756104 -0.00607269 21.40012207 -0.01214539 22.18579102 -0.0184021 C27.44722858 0.05159237 27.44722858 0.05159237 29.91870117 1.80004883 C31.89400664 4.89909625 31.22143498 7.82085679 30.9375 11.3984375 C30.2775 12.0584375 29.6175 12.7184375 28.9375 13.3984375 C26.2975 13.3984375 23.6575 13.3984375 20.9375 13.3984375 C20.9375 37.1584375 20.9375 60.9184375 20.9375 85.3984375 C23.2475 85.3984375 25.5575 85.3984375 27.9375 85.3984375 C29.875 86.3984375 29.875 86.3984375 30.9375 88.3984375 C31.44324093 91.81753109 31.84336169 95.00391814 29.90063477 97.99462891 C26.87584509 100.1576112 23.71182819 99.82637534 20.12890625 99.796875 C18.9842112 99.80118027 18.9842112 99.80118027 17.81639099 99.80557251 C16.20335142 99.80761273 14.59028708 99.80208574 12.97729492 99.78955078 C10.51229256 99.77351746 8.04893523 99.78938826 5.58398438 99.80859375 C4.01562139 99.80661088 2.44725942 99.80276629 0.87890625 99.796875 C0.14338028 99.80294769 -0.59214569 99.80902039 -1.34996033 99.8152771 C-4.53634921 99.77165435 -6.73254252 99.58632179 -9.52783203 97.99462891 C-11.0625 96.3984375 -11.0625 96.3984375 -11.55859375 94.4609375 C-11.40466102 89.0425053 -11.40466102 89.0425053 -10 86.3984375 C-8.0625 85.3984375 -8.0625 85.3984375 -1.0625 85.3984375 C-1.0625 61.9684375 -1.0625 38.5384375 -1.0625 14.3984375 C-3.7025 14.0684375 -6.3425 13.7384375 -9.0625 13.3984375 C-11.52574069 9.70357647 -11.45241688 7.76550658 -11.0625 3.3984375 C-8.57968219 -0.7423774 -4.3078688 -0.03430593 0 0 Z " fill="#95A8D5" transform="translate(298.0625,223.6015625)"/>
<path d="M0 0 C0.78628281 -0.0038269 1.57256561 -0.00765381 2.38267517 -0.01159668 C4.04101852 -0.01431323 5.69940489 -0.00696986 7.35766602 0.00976562 C9.89761579 0.03121008 12.43474654 0.00994326 14.97460938 -0.015625 C16.58724583 -0.01298224 18.19988053 -0.00785832 19.8125 0 C20.57192398 -0.00809692 21.33134796 -0.01619385 22.11378479 -0.02453613 C27.34295561 0.06864058 27.34295561 0.06864058 29.81811523 2.37304688 C31.20142848 5.29502755 31.24744914 7.33834114 30.83984375 10.53125 C29.1433445 13.26449879 27.93065057 13.5090116 24.77734375 14.28125 C21.83984375 14.53125 21.83984375 14.53125 19.83984375 13.53125 C19.85459244 14.13829773 19.86934113 14.74534546 19.88453674 15.37078857 C20.0391952 21.79681556 20.18339428 28.22302173 20.32202148 34.64941406 C20.37477903 37.03488921 20.43003911 39.42031058 20.48803711 41.80566406 C20.84185284 56.43825199 20.84068583 70.92459122 19.83984375 85.53125 C20.94457031 85.49902344 22.04929688 85.46679688 23.1875 85.43359375 C26.83984375 85.53125 26.83984375 85.53125 29.27734375 87.09375 C31.43445283 90.45884017 31.40972883 92.61329004 30.83984375 96.53125 C28.41259741 99.17974565 26.93049406 99.5216392 23.328125 99.90356445 C21.93625526 99.91655286 20.54415717 99.91257203 19.15234375 99.89453125 C18.41282471 99.89502975 17.67330566 99.89552826 16.91137695 99.89604187 C15.35137234 99.89370647 13.79136359 99.88400939 12.23144531 99.86743164 C9.84796338 99.8438304 7.46560046 99.84687547 5.08203125 99.85351562 C3.56379544 99.84793859 2.04556432 99.84082854 0.52734375 99.83203125 C-0.18317139 99.83294266 -0.89368652 99.83385406 -1.62573242 99.83479309 C-5.26675875 99.78279805 -8.12362044 99.65448206 -11.16015625 97.53125 C-12.56473362 94.72209526 -12.40910782 92.64314466 -12.16015625 89.53125 C-11.16015625 87.15625 -11.16015625 87.15625 -9.16015625 85.53125 C-6.52015625 85.53125 -3.88015625 85.53125 -1.16015625 85.53125 C-1.16015625 61.77125 -1.16015625 38.01125 -1.16015625 13.53125 C-2.81015625 13.86125 -4.46015625 14.19125 -6.16015625 14.53125 C-8.97265625 13.59375 -8.97265625 13.59375 -11.16015625 12.53125 C-12.33203125 6.671875 -12.33203125 6.671875 -12.16015625 4.53125 C-8.86789903 -0.07694605 -5.27359227 -0.05637693 0 0 Z " fill="#92A4D1" transform="translate(173.16015625,223.46875)"/>
<path d="M0 0 C0.7891127 -0.0033284 1.5782254 -0.0066568 2.39125061 -0.01008606 C4.06152767 -0.01515223 5.73181487 -0.01749448 7.40209961 -0.01733398 C9.9589911 -0.01951957 12.51545057 -0.03767571 15.07226562 -0.05664062 C16.69400894 -0.05957477 18.3157543 -0.06155943 19.9375 -0.0625 C21.08604713 -0.07327827 21.08604713 -0.07327827 22.25779724 -0.08427429 C26.05843398 -0.06789882 27.7942896 0.00739099 31.03515625 2.16796875 C31.328125 4.55078125 31.328125 4.55078125 31.22265625 7.29296875 C31.18205078 8.65808594 31.18205078 8.65808594 31.140625 10.05078125 C31.10582031 10.74945313 31.07101562 11.448125 31.03515625 12.16796875 C27.57300976 14.21961112 26.4412639 14.16796875 22.03515625 14.16796875 C21.70515625 37.59796875 21.37515625 61.02796875 21.03515625 85.16796875 C23.34515625 85.16796875 25.65515625 85.16796875 28.03515625 85.16796875 C30.53515625 86.66796875 30.53515625 86.66796875 32.03515625 89.16796875 C32.2586212 91.99480033 32.12823554 94.53774671 31.03515625 97.16796875 C27.46941269 99.64173089 23.74296822 99.45814739 19.56640625 99.43359375 C18.84908325 99.4355072 18.13176025 99.43742065 17.3927002 99.43939209 C15.87979785 99.44074988 14.3668837 99.43708184 12.85400391 99.42871094 C10.54302715 99.41800521 8.23282768 99.42861954 5.921875 99.44140625 C4.44921704 99.44008458 2.97655956 99.43752204 1.50390625 99.43359375 C0.81526489 99.43764221 0.12662354 99.44169067 -0.58288574 99.44586182 C-4.15764004 99.41105506 -7.04051249 99.35493796 -9.96484375 97.16796875 C-11.03968016 93.37021342 -11.23114806 91.00238892 -10.02734375 87.23046875 C-9.34671875 86.54984375 -8.66609375 85.86921875 -7.96484375 85.16796875 C-5.32484375 85.16796875 -2.68484375 85.16796875 0.03515625 85.16796875 C0.03515625 61.40796875 0.03515625 37.64796875 0.03515625 13.16796875 C-1.94484375 13.49796875 -3.92484375 13.82796875 -5.96484375 14.16796875 C-8.27734375 13.73046875 -8.27734375 13.73046875 -9.96484375 12.16796875 C-11.05390729 8.22011343 -11.26376421 5.06473012 -9.96484375 1.16796875 C-6.8201458 -0.40438023 -3.4526734 0.00500469 0 0 Z " fill="#8FA2CE" transform="translate(234.96484375,223.83203125)"/>
<path d="M0 0 C0.33 0 0.66 0 1 0 C1.33 2.97 1.66 5.94 2 9 C3.299375 9.144375 4.59875 9.28875 5.9375 9.4375 C9.875 9.875 9.875 9.875 11 11 C11.09439978 13.26991887 11.11742226 15.54281967 11.11352539 17.81469727 C11.11367142 18.52685394 11.11381744 19.23901062 11.1139679 19.9727478 C11.1132687 22.33733112 11.10547606 24.70183661 11.09765625 27.06640625 C11.09579209 28.70165463 11.09436818 30.33690357 11.09336853 31.97215271 C11.08954318 36.28434785 11.07971275 40.59650952 11.06866455 44.90869141 C11.0584508 49.30565946 11.05387099 53.70263289 11.04882812 58.09960938 C11.03809049 66.73308831 11.02101387 75.36654 11 84 C6.05 84.495 6.05 84.495 1 85 C1.495 84.01 1.495 84.01 2 83 C4.31 83 6.62 83 9 83 C9 59.57 9 36.14 9 12 C6.36 11.67 3.72 11.34 1 11 C-1.43769218 7.34346173 -1.23944439 5.30999899 -1 1 C-0.67 0.67 -0.34 0.34 0 0 Z " fill="#2A446D" transform="translate(288,226)"/>
<path d="M0 0 C0.78628281 -0.0038269 1.57256561 -0.00765381 2.38267517 -0.01159668 C4.04101852 -0.01431323 5.69940489 -0.00696986 7.35766602 0.00976562 C9.89761579 0.03121008 12.43474654 0.00994326 14.97460938 -0.015625 C16.58724583 -0.01298224 18.19988053 -0.00785832 19.8125 0 C20.57192398 -0.00809692 21.33134796 -0.01619385 22.11378479 -0.02453613 C27.33987372 0.06858566 27.33987372 0.06858566 29.82592773 2.36914062 C31.16698629 5.22886 31.11125741 7.40999286 30.83984375 10.53125 C30.50984375 11.19125 30.17984375 11.85125 29.83984375 12.53125 C29.17984375 12.20125 28.51984375 11.87125 27.83984375 11.53125 C27.87239583 9.48046875 27.90494792 7.4296875 27.9375 5.37890625 C28.04545559 3.51392859 28.04545559 3.51392859 26.83984375 2.53125 C24.54995594 2.37236908 22.25540934 2.27986927 19.9609375 2.21484375 C19.27427505 2.19406265 18.58761261 2.17328156 17.88014221 2.15187073 C15.6793144 2.08630857 13.478364 2.02745985 11.27734375 1.96875 C9.78839861 1.92557108 8.29946602 1.881957 6.81054688 1.83789062 C3.15377822 1.7306207 -0.50312943 1.62937228 -4.16015625 1.53125 C-4.49015625 3.18125 -4.82015625 4.83125 -5.16015625 6.53125 C-6.48015625 6.53125 -7.80015625 6.53125 -9.16015625 6.53125 C-9.16015625 8.51125 -9.16015625 10.49125 -9.16015625 12.53125 C-9.82015625 12.53125 -10.48015625 12.53125 -11.16015625 12.53125 C-12.33203125 6.671875 -12.33203125 6.671875 -12.16015625 4.53125 C-8.86789903 -0.07694605 -5.27359227 -0.05637693 0 0 Z " fill="#273A6B" transform="translate(173.16015625,223.46875)"/>
<path d="M0 0 C5.07198888 -0.07413521 10.14366268 -0.12859451 15.21606445 -0.16479492 C16.94170627 -0.17988516 18.66730972 -0.20035975 20.39282227 -0.22631836 C22.87265488 -0.26269209 25.35198064 -0.27972359 27.83203125 -0.29296875 C28.60400345 -0.30845261 29.37597565 -0.32393646 30.17134094 -0.33988953 C35.5106741 -0.34156867 35.5106741 -0.34156867 37.9921875 1.390625 C39.88916731 4.41991059 39.17092706 7.52448316 39 11 C38.34 11.33 37.68 11.66 37 12 C37 11.01 37 10.02 37 9 C36.01 8.67 35.02 8.34 34 8 C34 7.34 34 6.68 34 6 C33.34 6 32.68 6 32 6 C32 4.35 32 2.7 32 1 C15.665 1.495 15.665 1.495 -1 2 C-0.67 1.34 -0.34 0.68 0 0 Z " fill="#546797" transform="translate(290,224)"/>
<path d="M0 0 C0 0.66 0 1.32 0 2 C-1.65 2.33 -3.3 2.66 -5 3 C-5.1546875 4.1446875 -5.1546875 4.1446875 -5.3125 5.3125 C-6.07046269 8.27544506 -6.58806197 9.19104648 -9 11 C-11.26171875 11.07421875 -11.26171875 11.07421875 -13.6875 10.6875 C-14.49574219 10.56761719 -15.30398437 10.44773438 -16.13671875 10.32421875 C-16.75160156 10.21722656 -17.36648437 10.11023438 -18 10 C-15.3137382 6.87084199 -12.04608071 5.2357324 -8.4375 3.3125 C-7.28121094 2.68988281 -6.12492188 2.06726563 -4.93359375 1.42578125 C-2 0 -2 0 0 0 Z " fill="#6C81AF" transform="translate(191,172)"/>
<path d="M0 0 C3.125 -0.1875 3.125 -0.1875 6 0 C5.67 1.65 5.34 3.3 5 5 C3.68 5 2.36 5 1 5 C1 6.98 1 8.96 1 11 C0.34 11 -0.32 11 -1 11 C-2.25 3.375 -2.25 3.375 0 0 Z " fill="#6072A0" transform="translate(163,225)"/>
<path d="M0 0 C-0.66 0 -1.32 0 -2 0 C-1.67 0.99 -1.34 1.98 -1 3 C-2.28197266 3.27263672 -2.28197266 3.27263672 -3.58984375 3.55078125 C-4.69457031 3.80214844 -5.79929688 4.05351562 -6.9375 4.3125 C-8.59072266 4.67794922 -8.59072266 4.67794922 -10.27734375 5.05078125 C-11.62505859 5.52064453 -11.62505859 5.52064453 -13 6 C-13.33 6.99 -13.66 7.98 -14 9 C-15.98 9.33 -17.96 9.66 -20 10 C-16.85647586 6.51663541 -13.55486955 4.41247217 -9.4375 2.1875 C-8.30183594 1.56230469 -7.16617188 0.93710938 -5.99609375 0.29296875 C-3 -1 -3 -1 0 0 Z " fill="#2E4269" transform="translate(232,151)"/>
<path d="M0 0 C0.66 0.33 1.32 0.66 2 1 C1.41992188 1.31453125 0.83984375 1.6290625 0.2421875 1.953125 C-3.41571955 3.95712688 -6.99074574 5.93081637 -10.375 8.375 C-11.24125 8.91125 -12.1075 9.4475 -13 10 C-13.99 9.67 -14.98 9.34 -16 9 C-15.01 8.01 -14.02 7.02 -13 6 C-13.33 5.01 -13.66 4.02 -14 3 C-13.175 3.2475 -12.35 3.495 -11.5 3.75 C-7.24880322 4.05365691 -5.31830738 2.92396404 -1.734375 0.8125 C-1.16203125 0.544375 -0.5896875 0.27625 0 0 Z " fill="#485C87" transform="translate(238,167)"/>
<path d="M0 0 C0.99 0.33 1.98 0.66 3 1 C2.34 1 1.68 1 1 1 C0.67 2.32 0.34 3.64 0 5 C-0.845625 5.0825 -1.69125 5.165 -2.5625 5.25 C-5.60612091 5.91406274 -7.171085 6.55710619 -9.75 8.125 C-10.8225 8.74375 -11.895 9.3625 -13 10 C-13.66 9.67 -14.32 9.34 -15 9 C-12.34361175 7.31647082 -9.67422561 5.65502774 -7 4 C-6.34515625 3.58492187 -5.6903125 3.16984375 -5.015625 2.7421875 C-3.38975333 1.74859926 -1.69756229 0.86542391 0 0 Z " fill="#34456D" transform="translate(170,182)"/>
<path d="M0 0 C4.62 0 9.24 0 14 0 C14 0.33 14 0.66 14 1 C4.58997722 3.11161731 4.58997722 3.11161731 0 4 C0 2.68 0 1.36 0 0 Z " fill="#A7BBE6" transform="translate(144,332)"/>
<path d="M0 0 C1.44096586 0.42594588 2.87768712 0.86626633 4.3125 1.3125 C5.11300781 1.55613281 5.91351563 1.79976562 6.73828125 2.05078125 C9.09964573 3.04182023 10.33879993 4.08074943 12 6 C10.3745692 5.85904936 8.74965949 5.71207913 7.125 5.5625 C6.22007812 5.48128906 5.31515625 5.40007812 4.3828125 5.31640625 C2 5 2 5 0 4 C0 2.68 0 1.36 0 0 Z " fill="#5D70A5" transform="translate(333,191)"/>
<path d="M0 0 C1.65 0.33 3.3 0.66 5 1 C5.103125 1.639375 5.20625 2.27875 5.3125 2.9375 C5.539375 3.618125 5.76625 4.29875 6 5 C6.99 5.33 7.98 5.66 9 6 C8.01 6.495 8.01 6.495 7 7 C5.0546875 6.00390625 5.0546875 6.00390625 2.875 4.5625 C2.15054687 4.08941406 1.42609375 3.61632812 0.6796875 3.12890625 C0.12539063 2.75636719 -0.42890625 2.38382813 -1 2 C-0.67 1.34 -0.34 0.68 0 0 Z " fill="#546692" transform="translate(261,171)"/>
<path d="M0 0 C0 1.65 0 3.3 0 5 C-2.97 4.505 -2.97 4.505 -6 4 C-6 3.34 -6 2.68 -6 2 C-2.25 0 -2.25 0 0 0 Z " fill="#A2B5E0" transform="translate(168,186)"/>
<path d="M0 0 C0.33 0.99 0.66 1.98 1 3 C-2.3 3.66 -5.6 4.32 -9 5 C-4 0 -4 0 0 0 Z " fill="#4B5E8F" transform="translate(241,145)"/>
<path d="M0 0 C6.0546875 -0.1953125 6.0546875 -0.1953125 8 0 C8.66 0.66 9.32 1.32 10 2 C9.01 2.66 8.02 3.32 7 4 C3.3125 2.625 3.3125 2.625 0 1 C0 0.67 0 0.34 0 0 Z " fill="#91A7D5" transform="translate(241,145)"/>
<path d="M0 0 C0 0.66 0 1.32 0 2 C-4.15267176 5.11450382 -4.15267176 5.11450382 -7.3125 4.6875 C-7.869375 4.460625 -8.42625 4.23375 -9 4 C-2.25 0 -2.25 0 0 0 Z " fill="#33496F" transform="translate(182,177)"/>
<path d="M0 0 C0.99 0.33 1.98 0.66 3 1 C2.34 1 1.68 1 1 1 C1.33 1.99 1.66 2.98 2 4 C0.68 4.33 -0.64 4.66 -2 5 C-2 3.68 -2 2.36 -2 1 C-1.34 0.67 -0.68 0.34 0 0 Z " fill="#5C6FA3" transform="translate(229,150)"/>
</svg>
