<?xml version="1.0" encoding="UTF-8"?>
<svg version="1.1" xmlns="http://www.w3.org/2000/svg" width="500" height="499">
<path d="M0 0 C5.70220039 2.79620096 11.11622974 6.00716275 16.5234375 9.328125 C19.40916594 11.00755928 22.35276872 12.46969204 25.35546875 13.9296875 C33.95718143 18.15509022 42.23492238 22.9330417 50.5546875 27.68359375 C55.22410771 30.34769643 59.93199329 32.93275664 64.66503906 35.48193359 C67.22927061 36.9011152 69.73213257 38.39790045 72.23046875 39.9296875 C76.2741903 42.389139 80.40827185 44.50940422 84.66015625 46.58203125 C88.14753741 48.36917829 91.45537906 50.41746416 94.796875 52.4609375 C97.53198703 54.08307973 100.33043632 55.49134835 103.1875 56.8828125 C109.02111075 59.78235867 114.61959008 63.12667968 120.23046875 66.4296875 C123.61865336 68.42299052 126.98888732 70.3136825 130.54296875 71.9921875 C134.29267013 73.81615498 137.14234068 75.98915105 140.16796875 78.8671875 C141.31685456 82.31384492 141.37190345 85.11070655 141.41796875 88.7421875 C141.44375 89.95648438 141.46953125 91.17078125 141.49609375 92.421875 C141.14243706 96.13527028 140.41938469 97.93193027 138.16796875 100.8671875 C134.94091098 103.01855935 134.09376073 103.11836039 130.37745857 103.12445641 C128.88919758 103.13412974 128.88919758 103.13412974 127.37087071 103.1439985 C126.27799052 103.1409013 125.18511032 103.1378041 124.05911255 103.13461304 C122.32096608 103.14140971 122.32096608 103.14140971 120.54770553 103.14834368 C117.32604699 103.15883679 114.10452831 103.16030963 110.88285804 103.15795493 C107.41037369 103.15754754 103.9379229 103.16857847 100.4654541 103.17807007 C93.66023654 103.1946979 86.85505363 103.20018042 80.04981746 103.20129482 C74.51931984 103.20224446 68.98883368 103.20635049 63.45833969 103.21269608 C47.78552857 103.23031335 32.11274487 103.23953419 16.43992378 103.23803513 C15.59462686 103.23795522 14.74932994 103.2378753 13.87841797 103.23779297 C13.03209143 103.23771121 12.18576489 103.23762945 11.31379209 103.23754521 C-2.40465566 103.23673217 -16.12299366 103.25587309 -29.84140967 103.2840697 C-43.92036113 103.3127795 -57.99925903 103.32661105 -72.07824051 103.32488215 C-79.98535236 103.32421759 -87.89234914 103.32973875 -95.79943466 103.35123825 C-102.53143577 103.36942505 -109.26326966 103.3738181 -115.99528466 103.3602194 C-119.43089408 103.35367697 -122.86618249 103.35361788 -126.30176163 103.3709259 C-130.02453358 103.38627788 -133.74645515 103.37713571 -137.46920776 103.36166382 C-138.55762651 103.37195094 -139.64604526 103.38223807 -140.7674464 103.39283693 C-148.06556302 103.32553614 -148.06556302 103.32553614 -151.99879646 100.97345924 C-155.18311913 97.3148723 -154.67478993 93.65202435 -154.64453125 88.9921875 C-154.68900391 88.10660156 -154.73347656 87.22101563 -154.77929688 86.30859375 C-154.79340959 82.52073978 -154.76086602 79.91716865 -152.18481445 77.00512695 C-150.13710544 75.43803485 -148.08038197 74.12662074 -145.83203125 72.8671875 C-144.88457031 72.29871094 -143.93710938 71.73023438 -142.9609375 71.14453125 C-142.11402344 70.70238281 -141.26710938 70.26023437 -140.39453125 69.8046875 C-139.45609375 69.30710937 -138.51765625 68.80953125 -137.55078125 68.296875 C-136.65359375 67.82507813 -135.75640625 67.35328125 -134.83203125 66.8671875 C-129.75627754 64.10333531 -124.74944736 61.2377208 -119.76953125 58.3046875 C-115.8828881 56.02563446 -111.98709049 53.90924289 -107.93359375 51.94921875 C-105.2918605 50.58906985 -102.76049835 49.07396674 -100.20703125 47.5546875 C-94.5550827 44.21097748 -88.77402188 41.29418298 -82.86328125 38.4453125 C-80.25974734 37.08986443 -78.13784049 35.65617743 -75.83203125 33.8671875 C-73.9637835 32.93306362 -72.09405469 32.00171179 -70.21484375 31.08984375 C-67.4755065 29.68424939 -64.85179163 28.13096468 -62.20703125 26.5546875 C-56.61672951 23.24874764 -50.90502517 20.35866388 -45.05859375 17.54296875 C-41.80649426 15.85392434 -38.87553428 13.90288148 -35.83203125 11.8671875 C-33.84005188 10.85130454 -31.83964479 9.85181325 -29.83203125 8.8671875 C-26.86004686 7.1789399 -23.90309996 5.46969821 -20.95507812 3.74023438 C-13.93594427 -0.32671175 -7.91841627 -3.16736651 0 0 Z M-15.64453125 32.3046875 C-16.30195313 32.66667236 -16.959375 33.02865723 -17.63671875 33.40161133 C-19.70800467 34.5460754 -21.77041606 35.70540959 -23.83203125 36.8671875 C-25.07527229 37.5603418 -26.31875575 38.25306152 -27.5625 38.9453125 C-31.66227604 41.23511811 -35.74756913 43.55020532 -39.83203125 45.8671875 C-43.58133479 47.99341893 -47.33132301 50.1184349 -51.08203125 52.2421875 C-52.05406494 52.79285889 -53.02609863 53.34353027 -54.02758789 53.91088867 C-61.37772921 58.06637465 -68.76330429 62.15371135 -76.18652344 66.17724609 C-83.68323319 70.23672232 -83.68323319 70.23672232 -90.83203125 74.8671875 C-90.83203125 75.1971875 -90.83203125 75.5271875 -90.83203125 75.8671875 C-35.06203125 75.8671875 20.70796875 75.8671875 78.16796875 75.8671875 C74.58891626 72.28813501 71.78667097 70.48981761 67.35546875 68.4296875 C57.26440214 63.5631663 47.59809894 57.97278441 37.87695312 52.4140625 C34.06562942 50.23773346 30.24357984 48.08077769 26.41796875 45.9296875 C25.77504883 45.56770264 25.13212891 45.20571777 24.46972656 44.83276367 C19.94865891 42.29217943 15.39939691 39.80772893 10.83203125 37.3515625 C6.77636069 35.09180471 2.83538074 32.64123648 -1.10546875 30.1875 C-6.82777876 27.41652467 -10.42480356 29.34523926 -15.64453125 32.3046875 Z " fill="#F7F7F7" transform="translate(255.83203125,111.1328125)"/>
<path d="M0 0 C1.74070975 -0.01041829 1.74070975 -0.01041829 3.51658535 -0.02104706 C6.73388014 -0.03617776 9.95058163 -0.03336669 13.16787672 -0.02289402 C16.63898708 -0.01590461 20.11000268 -0.03189788 23.58108521 -0.04489136 C30.37938704 -0.06654057 37.17752155 -0.06640223 43.97584653 -0.05826581 C49.50058691 -0.05196792 55.02527845 -0.0531009 60.55001831 -0.05953789 C61.33609984 -0.06043954 62.12218137 -0.0613412 62.93208355 -0.06227018 C64.52895523 -0.06412136 66.12582691 -0.06598392 67.72269857 -0.06785773 C82.69925334 -0.08443922 97.67571393 -0.07571384 112.65226305 -0.05887216 C126.3576859 -0.0441728 140.06288957 -0.05880623 153.7682842 -0.08764232 C167.83827499 -0.11702529 181.90816457 -0.12801196 195.9781847 -0.11846012 C197.56920686 -0.11743756 199.16022903 -0.11644295 200.75125122 -0.11547661 C201.53408004 -0.11500022 202.31690885 -0.11452383 203.12345976 -0.114033 C208.64206837 -0.11186752 214.16058131 -0.12167994 219.6791687 -0.13624763 C226.40384753 -0.15375137 233.12824682 -0.15368196 239.85291457 -0.13089598 C243.28454155 -0.11973599 246.71567568 -0.11663008 250.14728165 -0.13519669 C253.86575276 -0.15103863 257.58286365 -0.13625734 261.30126953 -0.11352539 C262.38832404 -0.12536112 263.47537855 -0.13719685 264.59537411 -0.14939123 C272.71870623 -0.04809352 272.71870623 -0.04809352 275.79747009 2.99142551 C276.40901443 3.82409411 277.02055878 4.65676271 277.65063477 5.5146637 C277.98063477 5.8446637 278.31063477 6.1746637 278.65063477 6.5146637 C278.90361075 10.27869132 278.83586413 14.05564407 278.83813477 17.8271637 C278.85038086 18.88612854 278.86262695 19.94509338 278.87524414 21.03614807 C278.87717773 22.05644104 278.87911133 23.07673401 278.88110352 24.12794495 C278.8852124 25.06420715 278.88932129 26.00046936 278.89355469 26.96510315 C278.63505103 29.67822248 278.13970043 31.24465205 276.65063477 33.5146637 C272.9605219 35.97473894 270.16483962 35.80415513 265.8956604 35.7931366 C264.69689854 35.8018252 264.69689854 35.8018252 263.47391927 35.81068933 C260.78359783 35.8277502 258.09344743 35.83057186 255.40307617 35.83351135 C253.47520019 35.84281039 251.54732824 35.85297902 249.61946106 35.86395264 C244.35278565 35.89139917 239.08613732 35.90646661 233.81940889 35.91938066 C228.24223645 35.93509315 222.66511685 35.96190035 217.08798218 35.9874115 C207.65022391 36.029044 198.21246238 36.06344826 188.7746582 36.0927887 C175.72761487 36.13335563 162.68064566 36.18623389 149.63365984 36.24204493 C122.96329716 36.35542011 96.29289989 36.43933576 69.62238503 36.50697517 C66.71567817 36.51449542 63.80897277 36.52242588 60.90226746 36.53051758 C50.74936691 36.55864606 40.59648641 36.5817104 30.44355392 36.59423447 C27.5132703 36.59795113 24.58300434 36.60381531 21.65272903 36.61169815 C17.71501702 36.62210004 13.77732582 36.62434042 9.83959961 36.62550354 C8.71887432 36.62947018 7.59814903 36.63343681 6.44346237 36.63752365 C-11.91176321 36.61777586 -11.91176321 36.61777586 -16.34936523 32.5146637 C-16.99633789 29.66725159 -16.99633789 29.66725159 -17.01342773 26.23731995 C-17.01987305 25.00175354 -17.02631836 23.76618713 -17.03295898 22.49317932 C-17.01362305 21.20089417 -16.99428711 19.90860901 -16.97436523 18.5771637 C-16.99370117 17.28874573 -17.01303711 16.00032776 -17.03295898 14.67286682 C-17.02651367 13.43601135 -17.02006836 12.19915588 -17.01342773 10.92481995 C-17.00778809 9.79181458 -17.00214844 8.6588092 -16.99633789 7.49147034 C-16.34936523 4.5146637 -16.34936523 4.5146637 -14.51826477 2.36077976 C-9.7673921 -0.40695152 -5.40724394 -0.04099136 0 0 Z " fill="#F7F7F7" transform="translate(118.349365234375,380.48533630371094)"/>
<path d="M0 0 C1.07008804 -0.00619858 2.14017609 -0.01239716 3.24269104 -0.01878357 C5.50463959 -0.02588414 7.76664038 -0.02270366 10.02856445 -0.01000977 C13.48812193 0.00384305 16.94496841 -0.03019868 20.40429688 -0.06835938 C22.60286525 -0.06931069 24.801437 -0.06745109 27 -0.0625 C28.03346054 -0.07575821 29.06692108 -0.08901642 30.13169861 -0.10267639 C37.30403737 -0.00978698 37.30403737 -0.00978698 41.21655273 2.94726562 C43.78907146 6.58960176 43.79090703 8.91698251 43.5390625 13.25 C43.06640625 15.56640625 43.06640625 15.56640625 41.12890625 18.19140625 C38.06640625 19.56640625 38.06640625 19.56640625 29.06640625 19.56640625 C29.06640625 53.88640625 29.06640625 88.20640625 29.06640625 123.56640625 C31.37640625 123.56640625 33.68640625 123.56640625 36.06640625 123.56640625 C41.60486779 126.64332933 41.60486779 126.64332933 43.06640625 129.56640625 C43.3046875 131.5546875 43.3046875 131.5546875 43.37890625 133.87890625 C43.41628906 134.63816406 43.45367187 135.39742187 43.4921875 136.1796875 C42.86243901 139.70974556 41.74214935 141.17602061 39.06640625 143.56640625 C36.15667503 144.3330535 33.31418957 144.35804692 30.31640625 144.37890625 C29.47239258 144.40259277 28.62837891 144.4262793 27.75878906 144.45068359 C25.19438874 144.51476951 22.63146885 144.54379108 20.06640625 144.56640625 C18.63931241 144.59319578 17.21222812 144.62050189 15.78515625 144.6484375 C11.87429567 144.69077949 7.97644139 144.65312074 4.06640625 144.56640625 C3.37933594 144.55383789 2.69226563 144.54126953 1.984375 144.52832031 C-0.07324406 144.48155624 -2.1273626 144.4043868 -4.18359375 144.31640625 C-5.385 144.27 -6.58640625 144.22359375 -7.82421875 144.17578125 C-11.53006577 143.44950972 -12.77676944 142.6445924 -14.93359375 139.56640625 C-15.67639305 135.85240975 -15.50720906 132.30342481 -14.93359375 128.56640625 C-12.74740738 125.4002053 -11.56467764 124.77676755 -7.93359375 123.56640625 C-5.62359375 123.56640625 -3.31359375 123.56640625 -0.93359375 123.56640625 C-0.93359375 89.24640625 -0.93359375 54.92640625 -0.93359375 19.56640625 C-4.23359375 19.56640625 -7.53359375 19.56640625 -10.93359375 19.56640625 C-13.55859375 18.25390625 -13.55859375 18.25390625 -14.93359375 15.56640625 C-15.59472154 10.93147842 -16.16974592 6.51755473 -13.58374023 2.43579102 C-9.358913 -0.54435658 -5.0480742 -0.02417977 0 0 Z " fill="#F4F4F4" transform="translate(145.93359375,225.43359375)"/>
<path d="M0 0 C1.04647705 -0.00478363 2.0929541 -0.00956726 3.17114258 -0.01449585 C5.38006089 -0.01789298 7.58902961 -0.00870375 9.79785156 0.01220703 C13.1762721 0.03897354 16.55137014 0.01245107 19.9296875 -0.01953125 C22.07813232 -0.01622712 24.22657508 -0.00982083 26.375 0 C27.38344971 -0.01012115 28.39189941 -0.02024231 29.4309082 -0.03067017 C34.17836346 0.04855196 36.45180029 0.10508649 40.32397461 3.04711914 C42.92021563 6.69301295 42.85499543 9.00822266 42.58984375 13.34765625 C42.1875 15.6640625 42.1875 15.6640625 40.8125 18.2890625 C38.1875 19.6640625 38.1875 19.6640625 28.1875 19.6640625 C28.1875 53.9840625 28.1875 88.3040625 28.1875 123.6640625 C31.4875 123.9940625 34.7875 124.3240625 38.1875 124.6640625 C40.8125 126.0390625 40.8125 126.0390625 42.1875 128.6640625 C42.89215526 133.59664929 43.25204243 138.00810761 40.5 142.2890625 C35.92014443 145.01221987 31.12211913 144.79227521 25.90234375 144.796875 C25.20540909 144.79783173 24.50847443 144.79878845 23.79042053 144.79977417 C22.31706654 144.80045266 20.84370952 144.79862153 19.37036133 144.79443359 C17.15634112 144.78913747 14.94252909 144.79436024 12.72851562 144.80078125 C-10.22912806 144.81560573 -10.22912806 144.81560573 -14.5625 141.6640625 C-16.27351919 137.55761644 -16.756019 134.04072204 -15.8125 129.6640625 C-13.63090855 126.90836803 -11.94072506 125.22817503 -8.8125 123.6640625 C-6.5025 123.6640625 -4.1925 123.6640625 -1.8125 123.6640625 C-1.8125 89.3440625 -1.8125 55.0240625 -1.8125 19.6640625 C-5.1125 19.6640625 -8.4125 19.6640625 -11.8125 19.6640625 C-14.73361392 17.50800222 -15.55420466 16.05083264 -16.21484375 12.50390625 C-16.49542287 8.40471373 -16.41560824 6.50586981 -13.94897461 3.06298828 C-9.40681175 -0.4110751 -5.57601547 -0.05596285 0 0 Z " fill="#F5F5F4" transform="translate(324.8125,225.3359375)"/>
<path d="M0 0 C1.04647705 -0.0038269 2.0929541 -0.00765381 3.17114258 -0.01159668 C5.38005538 -0.01431438 7.58900044 -0.00696322 9.79785156 0.00976562 C13.17586119 0.03117623 16.5517439 0.00995803 19.9296875 -0.015625 C22.07812969 -0.0129817 24.22657055 -0.00785668 26.375 0 C27.38344971 -0.00809692 28.39189941 -0.01619385 29.4309082 -0.02453613 C33.86796536 0.0346978 36.46371911 0.08878238 40.3125 2.44165039 C42.81083458 5.22592717 43.08256246 6.94573754 43.33203125 10.56640625 C43.04120114 14.52012366 40.88081086 16.83793914 38.1875 19.53125 C36.0234375 19.9453125 36.0234375 19.9453125 33.5625 20.15625 C32.74523437 20.23101562 31.92796875 20.30578125 31.0859375 20.3828125 C30.45945312 20.43179688 29.83296875 20.48078125 29.1875 20.53125 C28.26920525 23.28613425 28.06372276 24.89057215 28.06724548 27.72636414 C28.06587082 28.58031769 28.06449615 29.43427124 28.06307983 30.31410217 C28.06667511 31.24774094 28.07027039 32.1813797 28.07397461 33.14331055 C28.07382858 34.12885925 28.07368256 35.11440796 28.0735321 36.12982178 C28.07422965 39.3925597 28.08201473 42.65524078 28.08984375 45.91796875 C28.09170849 48.1781257 28.09313213 50.43828305 28.09413147 52.69844055 C28.09795224 58.6513073 28.10777881 64.60414971 28.11883545 70.55700684 C28.129059 76.62979808 28.13363112 82.70259326 28.13867188 88.77539062 C28.14940144 100.69402112 28.16647262 112.61263354 28.1875 124.53125 C29.11046875 124.33917969 30.0334375 124.14710938 30.984375 123.94921875 C35.01788133 123.42289536 36.77095524 124.4347339 40.1875 126.53125 C42.77149406 129.11524406 42.5143593 130.31495365 42.5625 133.90625 C42.4845124 137.41110439 42.43513287 139.11522678 40.625 142.15625 C35.09868022 145.27366116 28.13445508 144.70233962 21.9296875 144.734375 C21.0636087 144.74007507 20.19752991 144.74577515 19.3052063 144.75164795 C17.48489587 144.76104485 15.66456884 144.76761064 13.84423828 144.77148438 C11.06382952 144.78124533 8.28414374 144.81234043 5.50390625 144.84375 C3.72917102 144.85027601 1.95443056 144.85552806 0.1796875 144.859375 C-0.64749786 144.8717218 -1.47468323 144.8840686 -2.32693481 144.89678955 C-6.97940733 144.87883959 -10.04981469 144.57167785 -13.8125 141.53125 C-16.64178353 137.28732471 -16.57045035 133.51090229 -15.8125 128.53125 C-13.9375 125.90625 -13.9375 125.90625 -10.8125 124.53125 C-7.5125 124.53125 -4.2125 124.53125 -0.8125 124.53125 C-0.8125 89.88125 -0.8125 55.23125 -0.8125 19.53125 C-4.1125 19.53125 -7.4125 19.53125 -10.8125 19.53125 C-13.9375 18.21875 -13.9375 18.21875 -15.8125 15.53125 C-16.50088073 11.75089249 -16.74773634 8.27219538 -15.8125 4.53125 C-11.32567301 -0.59789428 -6.33226836 -0.05084229 0 0 Z " fill="#F5F5F5" transform="translate(235.8125,225.46875)"/>
<path d="M0 0 C1.5625 1.625 1.5625 1.625 3 4 C2.6875 7.25 2.6875 7.25 2 10 C1.34 9.67 0.68 9.34 0 9 C0 6.03 0 3.06 0 0 Z " fill="#B9B9B5" transform="translate(309,355)"/>
<path d="M0 0 C0.66 0.33 1.32 0.66 2 1 C0.71034824 2.37562854 -0.62689293 3.70766393 -2 5 C-2.66 5 -3.32 5 -4 5 C-4.33 5.66 -4.66 6.32 -5 7 C-5 6.34 -5 5.68 -5 5 C-5.66 4.67 -6.32 4.34 -7 4 C-1.7265625 0.77734375 -1.7265625 0.77734375 0 0 Z " fill="#BEBEBE" transform="translate(137,169)"/>
<path d="M0 0 C0.66 0.33 1.32 0.66 2 1 C-0.75 5.875 -0.75 5.875 -3 7 C-2.25 2.25 -2.25 2.25 0 0 Z " fill="#C0C0C0" transform="translate(105,187)"/>
</svg>
